<svg width="900" height="150" viewBox="0 0 900 150" fill="none" xmlns="http://www.w3.org/2000/svg">
<path d="M8.88494 22V11.8182H12.902C13.6709 11.8182 14.3272 11.9557 14.8707 12.2308C15.4176 12.5026 15.8336 12.8887 16.1186 13.3892C16.407 13.8864 16.5511 14.4714 16.5511 15.1442C16.5511 15.8203 16.4053 16.402 16.1136 16.8892C15.822 17.3731 15.3994 17.7443 14.8459 18.0028C14.2957 18.2614 13.6295 18.3906 12.8473 18.3906H10.1577V16.6605H12.4993C12.9103 16.6605 13.2517 16.6042 13.5234 16.4915C13.7952 16.3788 13.9974 16.2098 14.13 15.9844C14.2659 15.759 14.3338 15.4789 14.3338 15.1442C14.3338 14.8061 14.2659 14.5211 14.13 14.2891C13.9974 14.0571 13.7936 13.8814 13.5185 13.7621C13.2467 13.6394 12.9036 13.5781 12.4893 13.5781H11.0376V22H8.88494ZM14.3835 17.3665L16.9141 22H14.5376L12.0618 17.3665H14.3835ZM21.3897 22.1491C20.6042 22.1491 19.9281 21.9901 19.3613 21.6719C18.7979 21.3504 18.3637 20.8963 18.0588 20.3097C17.7538 19.7197 17.6014 19.022 17.6014 18.2166C17.6014 17.4311 17.7538 16.7417 18.0588 16.1484C18.3637 15.5552 18.7929 15.0928 19.3464 14.7614C19.9032 14.4299 20.5562 14.2642 21.3052 14.2642C21.809 14.2642 22.278 14.3454 22.7122 14.5078C23.1497 14.6669 23.5308 14.9072 23.8556 15.2287C24.1838 15.5502 24.439 15.9545 24.6213 16.4418C24.8036 16.9257 24.8947 17.4924 24.8947 18.142V18.7237H18.4466V17.4112H22.9011C22.9011 17.1063 22.8348 16.8362 22.7022 16.6009C22.5697 16.3655 22.3857 16.1816 22.1504 16.049C21.9184 15.9131 21.6483 15.8452 21.34 15.8452C21.0185 15.8452 20.7335 15.9197 20.4849 16.0689C20.2396 16.2147 20.0474 16.4119 19.9082 16.6605C19.769 16.9058 19.6977 17.1792 19.6944 17.4808V18.7287C19.6944 19.1065 19.764 19.433 19.9032 19.7081C20.0458 19.9832 20.2463 20.1953 20.5048 20.3445C20.7633 20.4936 21.0699 20.5682 21.4245 20.5682C21.6599 20.5682 21.8753 20.535 22.0708 20.4688C22.2664 20.4025 22.4338 20.303 22.573 20.1705C22.7122 20.0379 22.8182 19.8755 22.8912 19.6832L24.85 19.8125C24.7505 20.2831 24.5467 20.6941 24.2385 21.0455C23.9335 21.3935 23.5391 21.6652 23.0552 21.8608C22.5746 22.053 22.0195 22.1491 21.3897 22.1491ZM28.4544 22.1442C27.9672 22.1442 27.533 22.0597 27.1518 21.8906C26.7707 21.7183 26.469 21.4647 26.247 21.13C26.0282 20.7919 25.9189 20.371 25.9189 19.8672C25.9189 19.4429 25.9967 19.0866 26.1525 18.7983C26.3083 18.5099 26.5204 18.2779 26.7889 18.1023C27.0574 17.9266 27.3623 17.794 27.7037 17.7045C28.0484 17.6151 28.4096 17.5521 28.7875 17.5156C29.2316 17.4692 29.5895 17.4261 29.8613 17.3864C30.1331 17.3433 30.3303 17.2803 30.4529 17.1974C30.5756 17.1146 30.6369 16.992 30.6369 16.8295V16.7997C30.6369 16.4848 30.5375 16.2412 30.3386 16.0689C30.1431 15.8965 29.8646 15.8104 29.5034 15.8104C29.1222 15.8104 28.819 15.8949 28.5936 16.0639C28.3682 16.2296 28.219 16.4384 28.1461 16.6903L26.1873 16.5312C26.2868 16.0672 26.4823 15.6662 26.774 15.3281C27.0656 14.9867 27.4418 14.7249 27.9025 14.5426C28.3665 14.357 28.9035 14.2642 29.5133 14.2642C29.9376 14.2642 30.3436 14.3139 30.7314 14.4134C31.1225 14.5128 31.4688 14.6669 31.7704 14.8757C32.0753 15.0845 32.3156 15.353 32.4913 15.6811C32.667 16.0059 32.7548 16.3954 32.7548 16.8494V22H30.7463V20.9411H30.6866C30.564 21.1797 30.3999 21.3902 30.1944 21.5724C29.9889 21.7514 29.742 21.8923 29.4537 21.995C29.1653 22.0945 28.8322 22.1442 28.4544 22.1442ZM29.0609 20.6825C29.3725 20.6825 29.6475 20.6212 29.8862 20.4986C30.1248 20.3726 30.3121 20.2036 30.448 19.9915C30.5839 19.7794 30.6518 19.5391 30.6518 19.2706V18.4602C30.5855 18.5033 30.4944 18.5431 30.3784 18.5795C30.2657 18.6127 30.1381 18.6442 29.9956 18.674C29.853 18.7005 29.7105 18.7254 29.568 18.7486C29.4255 18.7685 29.2962 18.7867 29.1802 18.8033C28.9316 18.8397 28.7145 18.8977 28.5289 18.9773C28.3433 19.0568 28.1992 19.1645 28.0964 19.3004C27.9937 19.433 27.9423 19.5987 27.9423 19.7976C27.9423 20.0859 28.0467 20.3063 28.2555 20.4588C28.4676 20.608 28.7361 20.6825 29.0609 20.6825ZM37.8482 22.1491C37.066 22.1491 36.3932 21.9834 35.8297 21.652C35.2696 21.3172 34.8387 20.8532 34.5371 20.2599C34.2388 19.6667 34.0897 18.9839 34.0897 18.2116C34.0897 17.4295 34.2405 16.7434 34.5421 16.1534C34.847 15.5601 35.2795 15.0978 35.8397 14.7663C36.3998 14.4316 37.066 14.2642 37.8382 14.2642C38.5044 14.2642 39.0878 14.3852 39.5882 14.6271C40.0887 14.8691 40.4848 15.2088 40.7765 15.6463C41.0681 16.0838 41.2289 16.5975 41.2587 17.1875H39.2601C39.2038 16.8063 39.0546 16.4998 38.8127 16.2678C38.574 16.0324 38.2608 15.9148 37.873 15.9148C37.5449 15.9148 37.2582 16.0043 37.013 16.1832C36.771 16.3589 36.5821 16.6158 36.4462 16.9538C36.3103 17.2919 36.2424 17.7012 36.2424 18.1818C36.2424 18.669 36.3087 19.0833 36.4412 19.4247C36.5771 19.7661 36.7677 20.0263 37.013 20.2053C37.2582 20.3842 37.5449 20.4737 37.873 20.4737C38.115 20.4737 38.3321 20.424 38.5243 20.3246C38.7199 20.2251 38.8806 20.081 39.0066 19.892C39.1358 19.6998 39.2203 19.4695 39.2601 19.201H41.2587C41.2256 19.7843 41.0665 20.2981 40.7814 20.7422C40.4997 21.183 40.1103 21.5277 39.6131 21.7763C39.1159 22.0249 38.5276 22.1491 37.8482 22.1491ZM46.6765 14.3636V15.9545H42.0778V14.3636H46.6765ZM43.1218 12.5341H45.2397V19.6534C45.2397 19.849 45.2695 20.0014 45.3292 20.1108C45.3888 20.2169 45.4717 20.2914 45.5778 20.3345C45.6871 20.3776 45.8131 20.3991 45.9556 20.3991C46.055 20.3991 46.1545 20.3909 46.2539 20.3743C46.3533 20.3544 46.4296 20.3395 46.4826 20.3295L46.8157 21.9055C46.7096 21.9387 46.5605 21.9768 46.3683 22.0199C46.176 22.0663 45.9424 22.0945 45.6673 22.1044C45.1568 22.1243 44.7094 22.0563 44.3249 21.9006C43.9438 21.7448 43.6471 21.5028 43.435 21.1747C43.2229 20.8466 43.1185 20.4323 43.1218 19.9318V12.5341ZM55.4128 11.8182H57.5407V18.9176C57.5407 19.5739 57.3932 20.1439 57.0982 20.6278C56.8065 21.1117 56.4005 21.4846 55.8801 21.7464C55.3598 22.0083 54.7549 22.1392 54.0655 22.1392C53.4524 22.1392 52.8955 22.0315 52.3951 21.8161C51.8979 21.5973 51.5035 21.2659 51.2118 20.8217C50.9202 20.3743 50.776 19.8125 50.7793 19.1364H52.9221C52.9287 19.4048 52.9834 19.6352 53.0861 19.8274C53.1922 20.0163 53.3364 20.1622 53.5186 20.2649C53.7042 20.3643 53.923 20.4141 54.1749 20.4141C54.44 20.4141 54.6638 20.3577 54.8461 20.245C55.0317 20.129 55.1725 19.96 55.2686 19.7379C55.3648 19.5159 55.4128 19.2424 55.4128 18.9176V11.8182ZM64.8439 14.7464C64.8042 14.3454 64.6335 14.0339 64.3319 13.8118C64.0302 13.5897 63.6209 13.4787 63.1039 13.4787C62.7525 13.4787 62.4559 13.5284 62.214 13.6278C61.972 13.724 61.7864 13.8582 61.6571 14.0305C61.5312 14.2029 61.4682 14.3984 61.4682 14.6172C61.4616 14.7995 61.4997 14.9586 61.5826 15.0945C61.6687 15.2304 61.7864 15.348 61.9355 15.4474C62.0847 15.5436 62.257 15.6281 62.4526 15.701C62.6481 15.7706 62.8569 15.8303 63.079 15.88L63.9938 16.0987C64.4379 16.1982 64.8456 16.3307 65.2168 16.4964C65.588 16.6622 65.9095 16.866 66.1813 17.108C66.4531 17.3499 66.6635 17.6349 66.8127 17.9631C66.9651 18.2912 67.043 18.6674 67.0463 19.0916C67.043 19.7147 66.8839 20.255 66.5691 20.7124C66.2575 21.1664 65.8068 21.5194 65.2168 21.7713C64.6301 22.0199 63.9225 22.1442 63.0939 22.1442C62.272 22.1442 61.556 22.0182 60.9462 21.7663C60.3397 21.5144 59.8657 21.1416 59.5243 20.6477C59.1863 20.1506 59.0089 19.5357 58.9924 18.8033H61.0755C61.0987 19.1446 61.1964 19.4297 61.3688 19.6584C61.5444 19.8838 61.7781 20.0545 62.0698 20.1705C62.3648 20.2831 62.6979 20.3395 63.0691 20.3395C63.4337 20.3395 63.7502 20.2865 64.0186 20.1804C64.2904 20.0743 64.5009 19.9268 64.65 19.7379C64.7992 19.549 64.8738 19.3319 64.8738 19.0866C64.8738 18.858 64.8058 18.6657 64.6699 18.5099C64.5373 18.3542 64.3418 18.2216 64.0833 18.1122C63.8281 18.0028 63.5149 17.9034 63.1436 17.8139L62.035 17.5355C61.1766 17.3267 60.4988 17.0002 60.0016 16.5561C59.5044 16.112 59.2575 15.5137 59.2608 14.7614C59.2575 14.1449 59.4216 13.6063 59.753 13.1456C60.0878 12.6849 60.5468 12.3253 61.1301 12.0668C61.7135 11.8082 62.3764 11.679 63.1188 11.679C63.8745 11.679 64.534 11.8082 65.0975 12.0668C65.6642 12.3253 66.1051 12.6849 66.4199 13.1456C66.7348 13.6063 66.8972 14.1399 66.9071 14.7464H64.8439ZM70.5128 11.8182L72.5661 15.2884H72.6456L74.7088 11.8182H77.1399L74.0327 16.9091L77.2095 22H74.7337L72.6456 18.5249H72.5661L70.478 22H68.0121L71.1989 16.9091L68.0717 11.8182H70.5128Z" fill="#2CAEC6"/>
<g filter="url(#filter0_d_82_267)">
<rect x="8" y="35" width="193.333" height="103" rx="4" fill="#0C1011"/>
<path d="M30.18 75.22L25.02 72.64V71.44L30.18 68.86V69.904L26.46 71.728C26.204 71.848 25.964 71.944 25.74 72.016C25.98 72.088 26.22 72.184 26.46 72.304L30.18 74.14V75.22ZM32.2993 78.16V69.4H33.3793V70.66H33.5953L33.3793 70.912C33.3793 70.408 33.5433 70.012 33.8713 69.724C34.1993 69.428 34.6393 69.28 35.1913 69.28C35.8553 69.28 36.3793 69.5 36.7633 69.94C37.1473 70.38 37.3393 70.976 37.3393 71.728V73.66C37.3393 74.42 37.1473 75.02 36.7633 75.46C36.3793 75.9 35.8553 76.12 35.1913 76.12C34.6473 76.12 34.2073 75.972 33.8713 75.676C33.5433 75.38 33.3793 74.984 33.3793 74.488L33.5953 74.74H33.3553L33.3793 76.24V78.16H32.2993ZM34.8313 75.184C35.2873 75.184 35.6393 75.048 35.8873 74.776C36.1353 74.504 36.2593 74.112 36.2593 73.6V71.8C36.2593 71.288 36.1353 70.896 35.8873 70.624C35.6393 70.352 35.2873 70.216 34.8313 70.216C34.3833 70.216 34.0273 70.356 33.7633 70.636C33.5073 70.916 33.3793 71.304 33.3793 71.8V73.6C33.3793 74.096 33.5073 74.484 33.7633 74.764C34.0273 75.044 34.3833 75.184 34.8313 75.184ZM41.6066 76.12C40.9426 76.12 40.4146 75.9 40.0226 75.46C39.6386 75.02 39.4466 74.424 39.4466 73.672V71.74C39.4466 70.98 39.6386 70.38 40.0226 69.94C40.4146 69.5 40.9426 69.28 41.6066 69.28C42.1506 69.28 42.5866 69.428 42.9146 69.724C43.2426 70.02 43.4066 70.416 43.4066 70.912L43.1906 70.66H43.4306L43.4066 69.16V67.24H44.4866V76H43.4066V74.74H43.1906L43.4066 74.488C43.4066 74.992 43.2426 75.392 42.9146 75.688C42.5946 75.976 42.1586 76.12 41.6066 76.12ZM41.9666 75.184C42.4146 75.184 42.7666 75.044 43.0226 74.764C43.2786 74.484 43.4066 74.096 43.4066 73.6V71.8C43.4066 71.304 43.2786 70.916 43.0226 70.636C42.7666 70.356 42.4146 70.216 41.9666 70.216C41.5106 70.216 41.1546 70.356 40.8986 70.636C40.6506 70.908 40.5266 71.296 40.5266 71.8V73.6C40.5266 74.104 40.6506 74.496 40.8986 74.776C41.1546 75.048 41.5106 75.184 41.9666 75.184ZM48.2259 76V70.516H46.3059V69.532H48.2259V68.896C48.2259 68.384 48.3819 67.98 48.6939 67.684C49.0059 67.388 49.4299 67.24 49.9659 67.24H52.0059V68.224H49.9659C49.7579 68.224 49.5939 68.284 49.4739 68.404C49.3619 68.516 49.3059 68.676 49.3059 68.884V69.532H52.0059V70.516H49.3059V76H48.2259ZM53.8013 72.52V71.56H58.9613V72.52H53.8013ZM64.2966 76C63.7286 76 63.2846 75.848 62.9646 75.544C62.6526 75.24 62.4966 74.812 62.4966 74.26V70.384H60.6366V69.4H62.4966V67.6H63.5766V69.4H66.2166V70.384H63.5766V74.26C63.5766 74.516 63.6326 74.708 63.7446 74.836C63.8646 74.956 64.0486 75.016 64.2966 75.016H66.0966V76H64.2966ZM70.7719 76.12C70.2599 76.12 69.8119 76.016 69.4279 75.808C69.0439 75.6 68.7479 75.308 68.5399 74.932C68.3319 74.548 68.2279 74.104 68.2279 73.6V71.8C68.2279 71.296 68.3319 70.856 68.5399 70.48C68.7479 70.096 69.0439 69.8 69.4279 69.592C69.8119 69.384 70.2599 69.28 70.7719 69.28C71.2839 69.28 71.7319 69.384 72.1159 69.592C72.4999 69.8 72.7959 70.096 73.0039 70.48C73.2119 70.856 73.3159 71.296 73.3159 71.8V72.964H69.2839V73.6C69.2839 74.128 69.4079 74.528 69.6559 74.8C69.9119 75.072 70.2839 75.208 70.7719 75.208C71.1879 75.208 71.5159 75.136 71.7559 74.992C72.0039 74.84 72.1559 74.616 72.2119 74.32H73.2919C73.2199 74.872 72.9559 75.312 72.4999 75.64C72.0439 75.96 71.4679 76.12 70.7719 76.12ZM72.2599 71.8C72.2599 71.272 72.1319 70.872 71.8759 70.6C71.6279 70.32 71.2599 70.18 70.7719 70.18C70.2839 70.18 69.9119 70.32 69.6559 70.6C69.4079 70.872 69.2839 71.272 69.2839 71.8V72.148H72.3439L72.2599 72.244V71.8ZM75.0272 76L77.3072 72.604L75.1712 69.4H76.4432L77.6912 71.44C77.7872 71.592 77.8832 71.772 77.9792 71.98C78.0672 71.772 78.1592 71.592 78.2552 71.44L79.5152 69.4H80.7752L78.6392 72.616L80.9072 76H79.6352L78.2792 73.84C78.1912 73.688 78.0912 73.492 77.9792 73.252C77.8592 73.484 77.7512 73.68 77.6552 73.84L76.2872 76H75.0272ZM85.8825 76C85.3145 76 84.8705 75.848 84.5505 75.544C84.2385 75.24 84.0825 74.812 84.0825 74.26V70.384H82.2225V69.4H84.0825V67.6H85.1625V69.4H87.8025V70.384H85.1625V74.26C85.1625 74.516 85.2185 74.708 85.3305 74.836C85.4505 74.956 85.6345 75.016 85.8825 75.016H87.6825V76H85.8825ZM125.754 75.22V74.176L129.474 72.352C129.73 72.232 129.97 72.136 130.194 72.064C129.954 71.992 129.714 71.896 129.474 71.776L125.754 69.94V68.86L130.914 71.44V72.64L125.754 75.22ZM31.6753 107.32L32.1913 105.964L25.5553 102.64V101.44L30.7153 98.86V99.94L26.9953 101.752C26.7553 101.872 26.5473 101.964 26.3713 102.028C26.5473 102.092 26.7553 102.184 26.9953 102.304L32.5273 105.064L35.9353 96.04H37.0753L32.8153 107.32H31.6753ZM39.4946 108.16V99.4H40.5746V100.66H40.7906L40.5746 100.912C40.5746 100.408 40.7386 100.012 41.0666 99.724C41.3946 99.428 41.8346 99.28 42.3866 99.28C43.0506 99.28 43.5746 99.5 43.9586 99.94C44.3426 100.38 44.5346 100.976 44.5346 101.728V103.66C44.5346 104.42 44.3426 105.02 43.9586 105.46C43.5746 105.9 43.0506 106.12 42.3866 106.12C41.8426 106.12 41.4026 105.972 41.0666 105.676C40.7386 105.38 40.5746 104.984 40.5746 104.488L40.7906 104.74H40.5506L40.5746 106.24V108.16H39.4946ZM42.0266 105.184C42.4826 105.184 42.8346 105.048 43.0826 104.776C43.3306 104.504 43.4546 104.112 43.4546 103.6V101.8C43.4546 101.288 43.3306 100.896 43.0826 100.624C42.8346 100.352 42.4826 100.216 42.0266 100.216C41.5786 100.216 41.2226 100.356 40.9586 100.636C40.7026 100.916 40.5746 101.304 40.5746 101.8V103.6C40.5746 104.096 40.7026 104.484 40.9586 104.764C41.2226 105.044 41.5786 105.184 42.0266 105.184ZM48.8019 106.12C48.1379 106.12 47.6099 105.9 47.2179 105.46C46.8339 105.02 46.6419 104.424 46.6419 103.672V101.74C46.6419 100.98 46.8339 100.38 47.2179 99.94C47.6099 99.5 48.1379 99.28 48.8019 99.28C49.3459 99.28 49.7819 99.428 50.1099 99.724C50.4379 100.02 50.6019 100.416 50.6019 100.912L50.3859 100.66H50.6259L50.6019 99.16V97.24H51.6819V106H50.6019V104.74H50.3859L50.6019 104.488C50.6019 104.992 50.4379 105.392 50.1099 105.688C49.7899 105.976 49.3539 106.12 48.8019 106.12ZM49.1619 105.184C49.6099 105.184 49.9619 105.044 50.2179 104.764C50.4739 104.484 50.6019 104.096 50.6019 103.6V101.8C50.6019 101.304 50.4739 100.916 50.2179 100.636C49.9619 100.356 49.6099 100.216 49.1619 100.216C48.7059 100.216 48.3499 100.356 48.0939 100.636C47.8459 100.908 47.7219 101.296 47.7219 101.8V103.6C47.7219 104.104 47.8459 104.496 48.0939 104.776C48.3499 105.048 48.7059 105.184 49.1619 105.184ZM55.4213 106V100.516H53.5013V99.532H55.4213V98.896C55.4213 98.384 55.5773 97.98 55.8893 97.684C56.2013 97.388 56.6253 97.24 57.1613 97.24H59.2013V98.224H57.1613C56.9533 98.224 56.7893 98.284 56.6693 98.404C56.5573 98.516 56.5013 98.676 56.5013 98.884V99.532H59.2013V100.516H56.5013V106H55.4213ZM60.9966 102.52V101.56H66.1566V102.52H60.9966ZM71.4919 106C70.9239 106 70.4799 105.848 70.1599 105.544C69.8479 105.24 69.6919 104.812 69.6919 104.26V100.384H67.8319V99.4H69.6919V97.6H70.7719V99.4H73.4119V100.384H70.7719V104.26C70.7719 104.516 70.8279 104.708 70.9399 104.836C71.0599 104.956 71.2439 105.016 71.4919 105.016H73.2919V106H71.4919ZM77.9672 106.12C77.4552 106.12 77.0072 106.016 76.6232 105.808C76.2392 105.6 75.9432 105.308 75.7352 104.932C75.5272 104.548 75.4232 104.104 75.4232 103.6V101.8C75.4232 101.296 75.5272 100.856 75.7352 100.48C75.9432 100.096 76.2392 99.8 76.6232 99.592C77.0072 99.384 77.4552 99.28 77.9672 99.28C78.4792 99.28 78.9272 99.384 79.3112 99.592C79.6952 99.8 79.9912 100.096 80.1992 100.48C80.4072 100.856 80.5112 101.296 80.5112 101.8V102.964H76.4792V103.6C76.4792 104.128 76.6032 104.528 76.8512 104.8C77.1072 105.072 77.4792 105.208 77.9672 105.208C78.3832 105.208 78.7112 105.136 78.9512 104.992C79.1992 104.84 79.3512 104.616 79.4072 104.32H80.4872C80.4152 104.872 80.1512 105.312 79.6952 105.64C79.2392 105.96 78.6632 106.12 77.9672 106.12ZM79.4552 101.8C79.4552 101.272 79.3272 100.872 79.0712 100.6C78.8232 100.32 78.4552 100.18 77.9672 100.18C77.4792 100.18 77.1072 100.32 76.8512 100.6C76.6032 100.872 76.4792 101.272 76.4792 101.8V102.148H79.5392L79.4552 102.244V101.8ZM82.2225 106L84.5025 102.604L82.3665 99.4H83.6385L84.8865 101.44C84.9825 101.592 85.0785 101.772 85.1745 101.98C85.2625 101.772 85.3545 101.592 85.4505 101.44L86.7105 99.4H87.9705L85.8345 102.616L88.1025 106H86.8305L85.4745 103.84C85.3865 103.688 85.2865 103.492 85.1745 103.252C85.0545 103.484 84.9465 103.68 84.8505 103.84L83.4825 106H82.2225ZM93.0778 106C92.5098 106 92.0658 105.848 91.7458 105.544C91.4338 105.24 91.2778 104.812 91.2778 104.26V100.384H89.4178V99.4H91.2778V97.6H92.3578V99.4H94.9978V100.384H92.3578V104.26C92.3578 104.516 92.4138 104.708 92.5258 104.836C92.6458 104.956 92.8298 105.016 93.0778 105.016H94.8778V106H93.0778ZM96.9731 105.22V104.176L100.693 102.352C100.949 102.232 101.189 102.136 101.413 102.064C101.173 101.992 100.933 101.896 100.693 101.776L96.9731 99.94V98.86L102.133 101.44V102.64L96.9731 105.22Z" fill="#2CAEC6"/>
<path d="M99.9371 76.12C99.3851 76.12 98.9451 75.976 98.6171 75.688C98.2971 75.392 98.1371 74.992 98.1371 74.488L98.3531 74.74H98.1371V76H97.0571V67.24H98.1371V69.16L98.1131 70.66H98.3531L98.1371 70.912C98.1371 70.416 98.3011 70.02 98.6291 69.724C98.9571 69.428 99.3931 69.28 99.9371 69.28C100.601 69.28 101.125 69.5 101.509 69.94C101.901 70.38 102.097 70.98 102.097 71.74V73.672C102.097 74.424 101.901 75.02 101.509 75.46C101.125 75.9 100.601 76.12 99.9371 76.12ZM99.5771 75.184C100.033 75.184 100.385 75.048 100.633 74.776C100.889 74.496 101.017 74.104 101.017 73.6V71.8C101.017 71.296 100.889 70.908 100.633 70.636C100.385 70.356 100.033 70.216 99.5771 70.216C99.1291 70.216 98.7771 70.356 98.5211 70.636C98.2651 70.916 98.1371 71.304 98.1371 71.8V73.6C98.1371 74.096 98.2651 74.484 98.5211 74.764C98.7771 75.044 99.1291 75.184 99.5771 75.184ZM106.748 76.12C106.228 76.12 105.776 76.02 105.392 75.82C105.008 75.62 104.712 75.332 104.504 74.956C104.304 74.572 104.204 74.12 104.204 73.6V71.8C104.204 71.28 104.304 70.832 104.504 70.456C104.712 70.072 105.008 69.78 105.392 69.58C105.776 69.38 106.228 69.28 106.748 69.28C107.268 69.28 107.72 69.38 108.104 69.58C108.488 69.78 108.78 70.072 108.98 70.456C109.188 70.832 109.292 71.276 109.292 71.788V73.6C109.292 74.12 109.188 74.572 108.98 74.956C108.78 75.332 108.488 75.62 108.104 75.82C107.72 76.02 107.268 76.12 106.748 76.12ZM106.748 75.16C107.22 75.16 107.58 75.028 107.828 74.764C108.084 74.492 108.212 74.104 108.212 73.6V71.8C108.212 71.296 108.084 70.912 107.828 70.648C107.58 70.376 107.22 70.24 106.748 70.24C106.276 70.24 105.912 70.376 105.656 70.648C105.408 70.912 105.284 71.296 105.284 71.8V73.6C105.284 74.104 105.408 74.492 105.656 74.764C105.912 75.028 106.276 75.16 106.748 75.16ZM114.724 76C114.14 76 113.672 75.832 113.32 75.496C112.976 75.152 112.804 74.7 112.804 74.14V68.224H110.824V67.24H113.884V74.14C113.884 74.412 113.96 74.628 114.112 74.788C114.264 74.94 114.468 75.016 114.724 75.016H116.944V76H114.724ZM120.755 76.12C120.091 76.12 119.563 75.9 119.171 75.46C118.787 75.02 118.595 74.424 118.595 73.672V71.74C118.595 70.98 118.787 70.38 119.171 69.94C119.563 69.5 120.091 69.28 120.755 69.28C121.299 69.28 121.735 69.428 122.063 69.724C122.391 70.02 122.555 70.416 122.555 70.912L122.339 70.66H122.579L122.555 69.16V67.24H123.635V76H122.555V74.74H122.339L122.555 74.488C122.555 74.992 122.391 75.392 122.063 75.688C121.743 75.976 121.307 76.12 120.755 76.12ZM121.115 75.184C121.563 75.184 121.915 75.044 122.171 74.764C122.427 74.484 122.555 74.096 122.555 73.6V71.8C122.555 71.304 122.427 70.916 122.171 70.636C121.915 70.356 121.563 70.216 121.115 70.216C120.659 70.216 120.303 70.356 120.047 70.636C119.799 70.908 119.675 71.296 119.675 71.8V73.6C119.675 74.104 119.799 74.496 120.047 74.776C120.303 75.048 120.659 75.184 121.115 75.184Z" fill="#396ED6"/>
<path d="M39.5066 91V82.24H40.5866V85.984H43.3946V82.24H44.4746V91H43.3946V86.968H40.5866V91H39.5066ZM49.1859 91.12C48.6739 91.12 48.2259 91.016 47.8419 90.808C47.4579 90.6 47.1619 90.308 46.9539 89.932C46.7459 89.548 46.6419 89.104 46.6419 88.6V86.8C46.6419 86.296 46.7459 85.856 46.9539 85.48C47.1619 85.096 47.4579 84.8 47.8419 84.592C48.2259 84.384 48.6739 84.28 49.1859 84.28C49.6979 84.28 50.1459 84.384 50.5299 84.592C50.9139 84.8 51.2099 85.096 51.4179 85.48C51.6259 85.856 51.7299 86.296 51.7299 86.8V87.964H47.6979V88.6C47.6979 89.128 47.8219 89.528 48.0699 89.8C48.3259 90.072 48.6979 90.208 49.1859 90.208C49.6019 90.208 49.9299 90.136 50.1699 89.992C50.4179 89.84 50.5699 89.616 50.6259 89.32H51.7059C51.6339 89.872 51.3699 90.312 50.9139 90.64C50.4579 90.96 49.8819 91.12 49.1859 91.12ZM50.6739 86.8C50.6739 86.272 50.5459 85.872 50.2899 85.6C50.0419 85.32 49.6739 85.18 49.1859 85.18C48.6979 85.18 48.3259 85.32 48.0699 85.6C47.8219 85.872 47.6979 86.272 47.6979 86.8V87.148H50.7579L50.6739 87.244V86.8ZM57.1613 91C56.5773 91 56.1093 90.832 55.7573 90.496C55.4133 90.152 55.2413 89.7 55.2413 89.14V83.224H53.2613V82.24H56.3213V89.14C56.3213 89.412 56.3973 89.628 56.5493 89.788C56.7013 89.94 56.9053 90.016 57.1613 90.016H59.3813V91H57.1613ZM64.3566 91C63.7726 91 63.3046 90.832 62.9526 90.496C62.6086 90.152 62.4366 89.7 62.4366 89.14V83.224H60.4566V82.24H63.5166V89.14C63.5166 89.412 63.5926 89.628 63.7446 89.788C63.8966 89.94 64.1006 90.016 64.3566 90.016H66.5766V91H64.3566ZM70.7719 91.12C70.2519 91.12 69.7999 91.02 69.4159 90.82C69.0319 90.62 68.7359 90.332 68.5279 89.956C68.3279 89.572 68.2279 89.12 68.2279 88.6V86.8C68.2279 86.28 68.3279 85.832 68.5279 85.456C68.7359 85.072 69.0319 84.78 69.4159 84.58C69.7999 84.38 70.2519 84.28 70.7719 84.28C71.2919 84.28 71.7439 84.38 72.1279 84.58C72.5119 84.78 72.8039 85.072 73.0039 85.456C73.2119 85.832 73.3159 86.276 73.3159 86.788V88.6C73.3159 89.12 73.2119 89.572 73.0039 89.956C72.8039 90.332 72.5119 90.62 72.1279 90.82C71.7439 91.02 71.2919 91.12 70.7719 91.12ZM70.7719 90.16C71.2439 90.16 71.6039 90.028 71.8519 89.764C72.1079 89.492 72.2359 89.104 72.2359 88.6V86.8C72.2359 86.296 72.1079 85.912 71.8519 85.648C71.6039 85.376 71.2439 85.24 70.7719 85.24C70.2999 85.24 69.9359 85.376 69.6799 85.648C69.4319 85.912 69.3079 86.296 69.3079 86.8V88.6C69.3079 89.104 69.4319 89.492 69.6799 89.764C69.9359 90.028 70.2999 90.16 70.7719 90.16ZM83.0385 91L81.9825 84.4H82.9425L83.6025 89.08C83.6505 89.384 83.6985 89.744 83.7465 90.16C83.8105 89.744 83.8665 89.384 83.9145 89.08L84.6465 84.4H85.6785L86.4105 89.08C86.4585 89.384 86.5145 89.744 86.5785 90.16C86.6425 89.744 86.6985 89.384 86.7465 89.08L87.4305 84.4H88.3425L87.2385 91H86.0505L85.3425 86.44L85.1505 85.24L84.9705 86.44L84.2265 91H83.0385ZM92.3578 91.12C91.8378 91.12 91.3858 91.02 91.0018 90.82C90.6178 90.62 90.3218 90.332 90.1138 89.956C89.9138 89.572 89.8138 89.12 89.8138 88.6V86.8C89.8138 86.28 89.9138 85.832 90.1138 85.456C90.3218 85.072 90.6178 84.78 91.0018 84.58C91.3858 84.38 91.8378 84.28 92.3578 84.28C92.8778 84.28 93.3298 84.38 93.7138 84.58C94.0978 84.78 94.3898 85.072 94.5898 85.456C94.7978 85.832 94.9018 86.276 94.9018 86.788V88.6C94.9018 89.12 94.7978 89.572 94.5898 89.956C94.3898 90.332 94.0978 90.62 93.7138 90.82C93.3298 91.02 92.8778 91.12 92.3578 91.12ZM92.3578 90.16C92.8298 90.16 93.1898 90.028 93.4378 89.764C93.6938 89.492 93.8218 89.104 93.8218 88.6V86.8C93.8218 86.296 93.6938 85.912 93.4378 85.648C93.1898 85.376 92.8298 85.24 92.3578 85.24C91.8858 85.24 91.5218 85.376 91.2658 85.648C91.0178 85.912 90.8938 86.296 90.8938 86.8V88.6C90.8938 89.104 91.0178 89.492 91.2658 89.764C91.5218 90.028 91.8858 90.16 92.3578 90.16ZM97.2851 91V84.4H98.3411V85.66H98.5931L98.2451 86.44C98.2451 85.728 98.3971 85.192 98.7011 84.832C99.0131 84.464 99.4731 84.28 100.081 84.28C100.777 84.28 101.329 84.5 101.737 84.94C102.153 85.372 102.361 85.96 102.361 86.704V87.1H101.281V86.8C101.281 86.288 101.153 85.892 100.897 85.612C100.649 85.332 100.293 85.192 99.8291 85.192C99.3731 85.192 99.0131 85.336 98.7491 85.624C98.4931 85.904 98.3651 86.296 98.3651 86.8V91H97.2851ZM107.528 91C106.944 91 106.476 90.832 106.124 90.496C105.78 90.152 105.608 89.7 105.608 89.14V83.224H103.628V82.24H106.688V89.14C106.688 89.412 106.764 89.628 106.916 89.788C107.068 89.94 107.272 90.016 107.528 90.016H109.748V91H107.528ZM113.56 91.12C112.896 91.12 112.368 90.9 111.976 90.46C111.592 90.02 111.4 89.424 111.4 88.672V86.74C111.4 85.98 111.592 85.38 111.976 84.94C112.368 84.5 112.896 84.28 113.56 84.28C114.104 84.28 114.54 84.428 114.868 84.724C115.196 85.02 115.36 85.416 115.36 85.912L115.144 85.66H115.384L115.36 84.16V82.24H116.44V91H115.36V89.74H115.144L115.36 89.488C115.36 89.992 115.196 90.392 114.868 90.688C114.548 90.976 114.112 91.12 113.56 91.12ZM113.92 90.184C114.368 90.184 114.72 90.044 114.976 89.764C115.232 89.484 115.36 89.096 115.36 88.6V86.8C115.36 86.304 115.232 85.916 114.976 85.636C114.72 85.356 114.368 85.216 113.92 85.216C113.464 85.216 113.108 85.356 112.852 85.636C112.604 85.908 112.48 86.296 112.48 86.8V88.6C112.48 89.104 112.604 89.496 112.852 89.776C113.108 90.048 113.464 90.184 113.92 90.184Z" fill="white"/>
</g>
<path d="M261.594 67V58.2727H264.867C265.538 58.2727 266.1 58.3892 266.555 58.6222C267.012 58.8551 267.357 59.1818 267.59 59.6023C267.826 60.0199 267.944 60.5071 267.944 61.0639C267.944 61.6236 267.825 62.1094 267.586 62.5213C267.35 62.9304 267.002 63.2472 266.542 63.4716C266.082 63.6932 265.516 63.804 264.846 63.804H262.515V62.4915H264.633C265.025 62.4915 265.346 62.4375 265.596 62.3295C265.846 62.2187 266.031 62.0582 266.15 61.848C266.272 61.6349 266.333 61.3736 266.333 61.0639C266.333 60.7543 266.272 60.4901 266.15 60.2713C266.028 60.0497 265.842 59.8821 265.592 59.7685C265.342 59.652 265.019 59.5938 264.624 59.5938H263.175V67H261.594ZM266.103 63.0455L268.264 67H266.499L264.377 63.0455H266.103ZM272.135 67.1278C271.479 67.1278 270.912 66.9915 270.435 66.7188C269.96 66.4432 269.595 66.054 269.34 65.5511C269.084 65.0455 268.956 64.4503 268.956 63.7656C268.956 63.0923 269.084 62.5014 269.34 61.9929C269.598 61.4815 269.959 61.0838 270.422 60.7997C270.885 60.5128 271.429 60.3693 272.054 60.3693C272.457 60.3693 272.838 60.4347 273.196 60.5653C273.557 60.6932 273.875 60.892 274.151 61.1619C274.429 61.4318 274.648 61.7756 274.807 62.1932C274.966 62.608 275.045 63.1023 275.045 63.6761V64.1491H269.68V63.1094H273.567C273.564 62.8139 273.5 62.5511 273.375 62.321C273.25 62.0881 273.075 61.9048 272.851 61.7713C272.629 61.6378 272.371 61.571 272.075 61.571C271.76 61.571 271.483 61.6477 271.244 61.8011C271.006 61.9517 270.82 62.1506 270.686 62.3977C270.555 62.642 270.489 62.9105 270.486 63.2031V64.1108C270.486 64.4915 270.555 64.8182 270.695 65.0909C270.834 65.3608 271.028 65.5682 271.278 65.7131C271.528 65.8551 271.821 65.9261 272.156 65.9261C272.381 65.9261 272.584 65.8949 272.766 65.8324C272.947 65.767 273.105 65.6719 273.239 65.5469C273.372 65.4219 273.473 65.267 273.541 65.0824L274.982 65.2443C274.891 65.625 274.717 65.9574 274.462 66.2415C274.209 66.5227 273.885 66.7415 273.49 66.8977C273.095 67.0511 272.644 67.1278 272.135 67.1278ZM278.234 67.1321C277.819 67.1321 277.446 67.0582 277.113 66.9105C276.784 66.7599 276.522 66.5384 276.329 66.2457C276.139 65.9531 276.044 65.5923 276.044 65.1634C276.044 64.794 276.112 64.4886 276.248 64.2472C276.385 64.0057 276.571 63.8125 276.807 63.6676C277.042 63.5227 277.308 63.4134 277.603 63.3395C277.902 63.2628 278.21 63.2074 278.528 63.1733C278.912 63.1335 279.223 63.098 279.461 63.0668C279.7 63.0327 279.873 62.9815 279.981 62.9134C280.092 62.8423 280.147 62.733 280.147 62.5852V62.5597C280.147 62.2386 280.052 61.9901 279.862 61.8139C279.672 61.6378 279.397 61.5497 279.039 61.5497C278.662 61.5497 278.362 61.6321 278.14 61.7969C277.922 61.9616 277.774 62.1562 277.697 62.3807L276.257 62.1761C276.37 61.7784 276.558 61.446 276.819 61.179C277.081 60.9091 277.4 60.7074 277.778 60.5739C278.156 60.4375 278.574 60.3693 279.031 60.3693C279.346 60.3693 279.66 60.4062 279.973 60.4801C280.285 60.554 280.571 60.6761 280.829 60.8466C281.088 61.0142 281.295 61.2429 281.451 61.5327C281.61 61.8224 281.69 62.1847 281.69 62.6193V67H280.207V66.1009H280.156C280.062 66.2827 279.93 66.4531 279.76 66.6122C279.592 66.7685 279.38 66.8949 279.125 66.9915C278.872 67.0852 278.575 67.1321 278.234 67.1321ZM278.635 65.9986C278.944 65.9986 279.213 65.9375 279.44 65.8153C279.667 65.6903 279.842 65.5256 279.964 65.321C280.089 65.1165 280.152 64.8935 280.152 64.652V63.8807C280.103 63.9205 280.021 63.9574 279.905 63.9915C279.791 64.0256 279.663 64.0554 279.521 64.081C279.379 64.1065 279.238 64.1293 279.099 64.1491C278.96 64.169 278.839 64.1861 278.737 64.2003C278.507 64.2315 278.301 64.2827 278.119 64.3537C277.937 64.4247 277.794 64.5241 277.689 64.652C277.583 64.777 277.531 64.9389 277.531 65.1378C277.531 65.4219 277.635 65.6364 277.842 65.7812C278.049 65.9261 278.314 65.9986 278.635 65.9986ZM286.096 67.1278C285.443 67.1278 284.882 66.9844 284.413 66.6974C283.947 66.4105 283.588 66.0142 283.335 65.5085C283.085 65 282.96 64.4148 282.96 63.7528C282.96 63.0881 283.088 62.5014 283.343 61.9929C283.599 61.4815 283.96 61.0838 284.426 60.7997C284.895 60.5128 285.449 60.3693 286.088 60.3693C286.619 60.3693 287.089 60.4673 287.498 60.6634C287.91 60.8565 288.238 61.1307 288.483 61.4858C288.727 61.8381 288.866 62.25 288.9 62.7216H287.426C287.366 62.4062 287.224 62.1435 287 61.9332C286.778 61.7202 286.481 61.6136 286.109 61.6136C285.794 61.6136 285.517 61.6989 285.278 61.8693C285.039 62.0369 284.853 62.2784 284.72 62.5938C284.589 62.9091 284.524 63.2869 284.524 63.7273C284.524 64.1733 284.589 64.5568 284.72 64.8778C284.851 65.196 285.034 65.4418 285.27 65.6151C285.508 65.7855 285.788 65.8707 286.109 65.8707C286.336 65.8707 286.539 65.8281 286.718 65.7429C286.9 65.6548 287.052 65.5284 287.174 65.3636C287.297 65.1989 287.38 64.9986 287.426 64.7628H288.9C288.863 65.2259 288.727 65.6364 288.491 65.9943C288.255 66.3494 287.934 66.6278 287.528 66.8295C287.122 67.0284 286.645 67.1278 286.096 67.1278ZM293.435 60.4545V61.6477H289.673V60.4545H293.435ZM290.602 58.8864H292.144V65.0312C292.144 65.2386 292.175 65.3977 292.238 65.5085C292.303 65.6165 292.389 65.6903 292.494 65.7301C292.599 65.7699 292.715 65.7898 292.843 65.7898C292.94 65.7898 293.028 65.7827 293.107 65.7685C293.19 65.7543 293.252 65.7415 293.295 65.7301L293.555 66.9361C293.472 66.9645 293.354 66.9957 293.201 67.0298C293.05 67.0639 292.866 67.0838 292.647 67.0895C292.261 67.1009 291.913 67.0426 291.603 66.9148C291.293 66.7841 291.048 66.5824 290.866 66.3097C290.687 66.0369 290.599 65.696 290.602 65.2869V58.8864ZM220.47 84.4545V75.4545H221.987V76.5369H222.076C222.156 76.3778 222.268 76.2088 222.413 76.0298C222.558 75.848 222.754 75.6932 223.001 75.5653C223.248 75.4347 223.563 75.3693 223.947 75.3693C224.453 75.3693 224.909 75.4986 225.315 75.7571C225.724 76.0128 226.048 76.392 226.286 76.8949C226.528 77.3949 226.649 78.0085 226.649 78.7358C226.649 79.4545 226.531 80.0653 226.295 80.5682C226.059 81.071 225.738 81.4545 225.332 81.7188C224.926 81.983 224.465 82.1151 223.951 82.1151C223.576 82.1151 223.265 82.0526 223.018 81.9276C222.771 81.8026 222.572 81.652 222.421 81.4759C222.274 81.2969 222.159 81.1278 222.076 80.9688H222.012V84.4545H220.47ZM221.982 78.7273C221.982 79.1506 222.042 79.5213 222.161 79.8395C222.284 80.1577 222.458 80.4062 222.686 80.5852C222.916 80.7614 223.194 80.8494 223.521 80.8494C223.862 80.8494 224.147 80.7585 224.377 80.5767C224.607 80.392 224.781 80.1406 224.897 79.8224C225.017 79.5014 225.076 79.1364 225.076 78.7273C225.076 78.321 225.018 77.9602 224.901 77.6449C224.785 77.3295 224.612 77.0824 224.382 76.9034C224.151 76.7244 223.865 76.6349 223.521 76.6349C223.191 76.6349 222.911 76.7216 222.681 76.8949C222.451 77.0682 222.276 77.3111 222.157 77.6236C222.041 77.9361 221.982 78.304 221.982 78.7273ZM230.399 82.1151C229.884 82.1151 229.424 81.983 229.018 81.7188C228.612 81.4545 228.291 81.071 228.055 80.5682C227.819 80.0653 227.701 79.4545 227.701 78.7358C227.701 78.0085 227.821 77.3949 228.059 76.8949C228.301 76.392 228.626 76.0128 229.035 75.7571C229.444 75.4986 229.9 75.3693 230.403 75.3693C230.786 75.3693 231.102 75.4347 231.349 75.5653C231.596 75.6932 231.792 75.848 231.937 76.0298C232.082 76.2088 232.194 76.3778 232.274 76.5369H232.338V73.2727H233.884V82H232.367V80.9688H232.274C232.194 81.1278 232.079 81.2969 231.928 81.4759C231.778 81.652 231.579 81.8026 231.332 81.9276C231.085 82.0526 230.774 82.1151 230.399 82.1151ZM230.829 80.8494C231.156 80.8494 231.434 80.7614 231.664 80.5852C231.894 80.4062 232.069 80.1577 232.188 79.8395C232.308 79.5213 232.367 79.1506 232.367 78.7273C232.367 78.304 232.308 77.9361 232.188 77.6236C232.072 77.3111 231.899 77.0682 231.669 76.8949C231.441 76.7216 231.161 76.6349 230.829 76.6349C230.485 76.6349 230.198 76.7244 229.968 76.9034C229.738 77.0824 229.565 77.3295 229.448 77.6449C229.332 77.9602 229.274 78.321 229.274 78.7273C229.274 79.1364 229.332 79.5014 229.448 79.8224C229.568 80.1406 229.742 80.392 229.973 80.5767C230.205 80.7585 230.491 80.8494 230.829 80.8494ZM238.844 75.4545V76.6477H234.974V75.4545H238.844ZM235.942 82V74.8366C235.942 74.3963 236.033 74.0298 236.214 73.7372C236.399 73.4446 236.646 73.2259 236.956 73.081C237.265 72.9361 237.609 72.8636 237.987 72.8636C238.254 72.8636 238.491 72.8849 238.699 72.9276C238.906 72.9702 239.06 73.0085 239.159 73.0426L238.852 74.2358C238.787 74.2159 238.704 74.196 238.605 74.1761C238.506 74.1534 238.395 74.142 238.273 74.142C237.986 74.142 237.783 74.2116 237.663 74.3509C237.547 74.4872 237.488 74.6832 237.488 74.9389V82H235.942ZM240.052 82V75.4545H241.526V76.5668H241.603C241.739 76.1918 241.965 75.8991 242.28 75.6889C242.596 75.4759 242.972 75.3693 243.41 75.3693C243.853 75.3693 244.226 75.4773 244.53 75.6932C244.837 75.9062 245.053 76.1974 245.178 76.5668H245.246C245.391 76.2031 245.636 75.9134 245.979 75.6974C246.326 75.4787 246.736 75.3693 247.211 75.3693C247.813 75.3693 248.305 75.5597 248.685 75.9403C249.066 76.321 249.256 76.8764 249.256 77.6065V82H247.709V77.8452C247.709 77.4389 247.601 77.142 247.386 76.9545C247.17 76.7642 246.905 76.669 246.593 76.669C246.221 76.669 245.93 76.7855 245.719 77.0185C245.512 77.2486 245.408 77.5483 245.408 77.9176V82H243.895V77.7812C243.895 77.4432 243.793 77.1733 243.589 76.9716C243.387 76.7699 243.123 76.669 242.796 76.669C242.574 76.669 242.373 76.7259 242.191 76.8395C242.009 76.9503 241.864 77.108 241.756 77.3125C241.648 77.5142 241.594 77.75 241.594 78.0199V82H240.052ZM252.705 82.1321C252.29 82.1321 251.916 82.0582 251.584 81.9105C251.254 81.7599 250.993 81.5384 250.8 81.2457C250.61 80.9531 250.514 80.5923 250.514 80.1634C250.514 79.794 250.583 79.4886 250.719 79.2472C250.855 79.0057 251.041 78.8125 251.277 78.6676C251.513 78.5227 251.779 78.4134 252.074 78.3395C252.372 78.2628 252.681 78.2074 252.999 78.1733C253.382 78.1335 253.693 78.098 253.932 78.0668C254.171 78.0327 254.344 77.9815 254.452 77.9134C254.563 77.8423 254.618 77.733 254.618 77.5852V77.5597C254.618 77.2386 254.523 76.9901 254.333 76.8139C254.142 76.6378 253.868 76.5497 253.51 76.5497C253.132 76.5497 252.833 76.6321 252.611 76.7969C252.392 76.9616 252.245 77.1562 252.168 77.3807L250.727 77.1761C250.841 76.7784 251.029 76.446 251.29 76.179C251.551 75.9091 251.871 75.7074 252.249 75.5739C252.627 75.4375 253.044 75.3693 253.502 75.3693C253.817 75.3693 254.131 75.4062 254.443 75.4801C254.756 75.554 255.041 75.6761 255.3 75.8466C255.558 76.0142 255.766 76.2429 255.922 76.5327C256.081 76.8224 256.161 77.1847 256.161 77.6193V82H254.678V81.1009H254.627C254.533 81.2827 254.401 81.4531 254.23 81.6122C254.063 81.7685 253.851 81.8949 253.595 81.9915C253.343 82.0852 253.046 82.1321 252.705 82.1321ZM253.105 80.9986C253.415 80.9986 253.683 80.9375 253.911 80.8153C254.138 80.6903 254.313 80.5256 254.435 80.321C254.56 80.1165 254.622 79.8935 254.622 79.652V78.8807C254.574 78.9205 254.492 78.9574 254.375 78.9915C254.262 79.0256 254.134 79.0554 253.992 79.081C253.85 79.1065 253.709 79.1293 253.57 79.1491C253.431 79.169 253.31 79.1861 253.208 79.2003C252.977 79.2315 252.772 79.2827 252.59 79.3537C252.408 79.4247 252.264 79.5241 252.159 79.652C252.054 79.777 252.002 79.9389 252.002 80.1378C252.002 80.4219 252.105 80.6364 252.313 80.7812C252.52 80.9261 252.784 80.9986 253.105 80.9986ZM259.118 79.946L259.114 78.0838H259.361L261.713 75.4545H263.516L260.622 78.6761H260.303L259.118 79.946ZM257.712 82V73.2727H259.254V82H257.712ZM261.82 82L259.689 79.0213L260.729 77.9347L263.665 82H261.82ZM267.172 82.1278C266.516 82.1278 265.949 81.9915 265.472 81.7188C264.997 81.4432 264.632 81.054 264.377 80.5511C264.121 80.0455 263.993 79.4503 263.993 78.7656C263.993 78.0923 264.121 77.5014 264.377 76.9929C264.635 76.4815 264.996 76.0838 265.459 75.7997C265.922 75.5128 266.466 75.3693 267.091 75.3693C267.495 75.3693 267.875 75.4347 268.233 75.5653C268.594 75.6932 268.912 75.892 269.188 76.1619C269.466 76.4318 269.685 76.7756 269.844 77.1932C270.003 77.608 270.083 78.1023 270.083 78.6761V79.1491H264.718V78.1094H268.604C268.601 77.8139 268.537 77.5511 268.412 77.321C268.287 77.0881 268.112 76.9048 267.888 76.7713C267.666 76.6378 267.408 76.571 267.112 76.571C266.797 76.571 266.52 76.6477 266.281 76.8011C266.043 76.9517 265.857 77.1506 265.723 77.3977C265.593 77.642 265.526 77.9105 265.523 78.2031V79.1108C265.523 79.4915 265.593 79.8182 265.732 80.0909C265.871 80.3608 266.066 80.5682 266.316 80.7131C266.566 80.8551 266.858 80.9261 267.193 80.9261C267.418 80.9261 267.621 80.8949 267.803 80.8324C267.985 80.767 268.142 80.6719 268.276 80.5469C268.409 80.4219 268.51 80.267 268.578 80.0824L270.019 80.2443C269.928 80.625 269.754 80.9574 269.499 81.2415C269.246 81.5227 268.922 81.7415 268.527 81.8977C268.132 82.0511 267.681 82.1278 267.172 82.1278ZM274.432 82V73.2727H277.705C278.376 73.2727 278.938 73.3892 279.393 73.6222C279.85 73.8551 280.195 74.1818 280.428 74.6023C280.664 75.0199 280.782 75.5071 280.782 76.0639C280.782 76.6236 280.663 77.1094 280.424 77.5213C280.188 77.9304 279.84 78.2472 279.38 78.4716C278.92 78.6932 278.354 78.804 277.684 78.804H275.353V77.4915H277.471C277.863 77.4915 278.184 77.4375 278.434 77.3295C278.684 77.2187 278.868 77.0582 278.988 76.848C279.11 76.6349 279.171 76.3736 279.171 76.0639C279.171 75.7543 279.11 75.4901 278.988 75.2713C278.866 75.0497 278.68 74.8821 278.43 74.7685C278.18 74.652 277.857 74.5938 277.462 74.5938H276.013V82H274.432ZM278.941 78.0455L281.101 82H279.337L277.215 78.0455H278.941ZM284.973 82.1278C284.317 82.1278 283.75 81.9915 283.273 81.7188C282.798 81.4432 282.433 81.054 282.177 80.5511C281.922 80.0455 281.794 79.4503 281.794 78.7656C281.794 78.0923 281.922 77.5014 282.177 76.9929C282.436 76.4815 282.797 76.0838 283.26 75.7997C283.723 75.5128 284.267 75.3693 284.892 75.3693C285.295 75.3693 285.676 75.4347 286.034 75.5653C286.395 75.6932 286.713 75.892 286.988 76.1619C287.267 76.4318 287.486 76.7756 287.645 77.1932C287.804 77.608 287.883 78.1023 287.883 78.6761V79.1491H282.518V78.1094H286.405C286.402 77.8139 286.338 77.5511 286.213 77.321C286.088 77.0881 285.913 76.9048 285.689 76.7713C285.467 76.6378 285.209 76.571 284.913 76.571C284.598 76.571 284.321 76.6477 284.082 76.8011C283.844 76.9517 283.658 77.1506 283.524 77.3977C283.393 77.642 283.327 77.9105 283.324 78.2031V79.1108C283.324 79.4915 283.393 79.8182 283.533 80.0909C283.672 80.3608 283.866 80.5682 284.116 80.7131C284.366 80.8551 284.659 80.9261 284.994 80.9261C285.219 80.9261 285.422 80.8949 285.604 80.8324C285.785 80.767 285.943 80.6719 286.077 80.5469C286.21 80.4219 286.311 80.267 286.379 80.0824L287.819 80.2443C287.729 80.625 287.555 80.9574 287.3 81.2415C287.047 81.5227 286.723 81.7415 286.328 81.8977C285.933 82.0511 285.481 82.1278 284.973 82.1278ZM292.044 82.1278C291.39 82.1278 290.829 81.9844 290.36 81.6974C289.894 81.4105 289.535 81.0142 289.282 80.5085C289.032 80 288.907 79.4148 288.907 78.7528C288.907 78.0881 289.035 77.5014 289.291 76.9929C289.546 76.4815 289.907 76.0838 290.373 75.7997C290.842 75.5128 291.396 75.3693 292.035 75.3693C292.566 75.3693 293.036 75.4673 293.446 75.6634C293.857 75.8565 294.186 76.1307 294.43 76.4858C294.674 76.8381 294.813 77.25 294.848 77.7216H293.373C293.313 77.4062 293.171 77.1435 292.947 76.9332C292.725 76.7202 292.428 76.6136 292.056 76.6136C291.741 76.6136 291.464 76.6989 291.225 76.8693C290.987 77.0369 290.801 77.2784 290.667 77.5938C290.536 77.9091 290.471 78.2869 290.471 78.7273C290.471 79.1733 290.536 79.5568 290.667 79.8778C290.798 80.196 290.981 80.4418 291.217 80.6151C291.455 80.7855 291.735 80.8707 292.056 80.8707C292.284 80.8707 292.487 80.8281 292.666 80.7429C292.848 80.6548 293 80.5284 293.122 80.3636C293.244 80.1989 293.328 79.9986 293.373 79.7628H294.848C294.811 80.2259 294.674 80.6364 294.438 80.9943C294.203 81.3494 293.882 81.6278 293.475 81.8295C293.069 82.0284 292.592 82.1278 292.044 82.1278ZM298.969 82.1278C298.33 82.1278 297.776 81.9872 297.307 81.706C296.839 81.4247 296.475 81.0312 296.216 80.5256C295.961 80.0199 295.833 79.429 295.833 78.7528C295.833 78.0767 295.961 77.4844 296.216 76.9759C296.475 76.4673 296.839 76.0724 297.307 75.7912C297.776 75.5099 298.33 75.3693 298.969 75.3693C299.609 75.3693 300.163 75.5099 300.631 75.7912C301.1 76.0724 301.462 76.4673 301.718 76.9759C301.976 77.4844 302.106 78.0767 302.106 78.7528C302.106 79.429 301.976 80.0199 301.718 80.5256C301.462 81.0312 301.1 81.4247 300.631 81.706C300.163 81.9872 299.609 82.1278 298.969 82.1278ZM298.978 80.892C299.324 80.892 299.614 80.7969 299.847 80.6065C300.08 80.4134 300.253 80.1548 300.367 79.831C300.484 79.5071 300.542 79.1463 300.542 78.7486C300.542 78.348 300.484 77.9858 300.367 77.6619C300.253 77.3352 300.08 77.0753 299.847 76.8821C299.614 76.6889 299.324 76.5923 298.978 76.5923C298.623 76.5923 298.327 76.6889 298.091 76.8821C297.859 77.0753 297.684 77.3352 297.567 77.6619C297.454 77.9858 297.397 78.348 297.397 78.7486C297.397 79.1463 297.454 79.5071 297.567 79.831C297.684 80.1548 297.859 80.4134 298.091 80.6065C298.327 80.7969 298.623 80.892 298.978 80.892ZM304.958 78.1648V82H303.415V75.4545H304.889V76.5668H304.966C305.117 76.2003 305.357 75.9091 305.686 75.6932C306.019 75.4773 306.429 75.3693 306.918 75.3693C307.37 75.3693 307.763 75.4659 308.098 75.6591C308.436 75.8523 308.698 76.1321 308.882 76.4986C309.07 76.8651 309.162 77.3097 309.159 77.8324V82H307.617V78.071C307.617 77.6335 307.503 77.2912 307.276 77.044C307.051 76.7969 306.74 76.6733 306.343 76.6733C306.073 76.6733 305.833 76.733 305.622 76.8523C305.415 76.9687 305.252 77.1378 305.132 77.3594C305.016 77.581 304.958 77.8494 304.958 78.1648ZM313.583 82.1278C312.929 82.1278 312.368 81.9844 311.899 81.6974C311.433 81.4105 311.074 81.0142 310.821 80.5085C310.571 80 310.446 79.4148 310.446 78.7528C310.446 78.0881 310.574 77.5014 310.83 76.9929C311.085 76.4815 311.446 76.0838 311.912 75.7997C312.381 75.5128 312.935 75.3693 313.574 75.3693C314.105 75.3693 314.576 75.4673 314.985 75.6634C315.397 75.8565 315.725 76.1307 315.969 76.4858C316.213 76.8381 316.352 77.25 316.387 77.7216H314.912C314.852 77.4062 314.71 77.1435 314.486 76.9332C314.264 76.7202 313.968 76.6136 313.595 76.6136C313.28 76.6136 313.003 76.6989 312.764 76.8693C312.526 77.0369 312.34 77.2784 312.206 77.5938C312.076 77.9091 312.01 78.2869 312.01 78.7273C312.01 79.1733 312.076 79.5568 312.206 79.8778C312.337 80.196 312.52 80.4418 312.756 80.6151C312.995 80.7855 313.274 80.8707 313.595 80.8707C313.823 80.8707 314.026 80.8281 314.205 80.7429C314.387 80.6548 314.539 80.5284 314.661 80.3636C314.783 80.1989 314.867 79.9986 314.912 79.7628H316.387C316.35 80.2259 316.213 80.6364 315.977 80.9943C315.742 81.3494 315.421 81.6278 315.014 81.8295C314.608 82.0284 314.131 82.1278 313.583 82.1278ZM317.653 82V75.4545H319.196V82H317.653ZM318.429 74.5256C318.185 74.5256 317.974 74.4446 317.798 74.2827C317.622 74.1179 317.534 73.9205 317.534 73.6903C317.534 73.4574 317.622 73.2599 317.798 73.098C317.974 72.9332 318.185 72.8509 318.429 72.8509C318.676 72.8509 318.886 72.9332 319.06 73.098C319.236 73.2599 319.324 73.4574 319.324 73.6903C319.324 73.9205 319.236 74.1179 319.06 74.2827C318.886 74.4446 318.676 74.5256 318.429 74.5256ZM322.325 73.2727V82H320.782V73.2727H322.325ZM326.809 82.1278C326.153 82.1278 325.586 81.9915 325.109 81.7188C324.634 81.4432 324.269 81.054 324.013 80.5511C323.758 80.0455 323.63 79.4503 323.63 78.7656C323.63 78.0923 323.758 77.5014 324.013 76.9929C324.272 76.4815 324.633 76.0838 325.096 75.7997C325.559 75.5128 326.103 75.3693 326.728 75.3693C327.131 75.3693 327.512 75.4347 327.87 75.5653C328.231 75.6932 328.549 75.892 328.824 76.1619C329.103 76.4318 329.322 76.7756 329.481 77.1932C329.64 77.608 329.719 78.1023 329.719 78.6761V79.1491H324.354V78.1094H328.241C328.238 77.8139 328.174 77.5511 328.049 77.321C327.924 77.0881 327.749 76.9048 327.525 76.7713C327.303 76.6378 327.045 76.571 326.749 76.571C326.434 76.571 326.157 76.6477 325.918 76.8011C325.68 76.9517 325.493 77.1506 325.36 77.3977C325.229 77.642 325.163 77.9105 325.16 78.2031V79.1108C325.16 79.4915 325.229 79.8182 325.368 80.0909C325.508 80.3608 325.702 80.5682 325.952 80.7131C326.202 80.8551 326.495 80.9261 326.83 80.9261C327.055 80.9261 327.258 80.8949 327.439 80.8324C327.621 80.767 327.779 80.6719 327.913 80.5469C328.046 80.4219 328.147 80.267 328.215 80.0824L329.655 80.2443C329.564 80.625 329.391 80.9574 329.136 81.2415C328.883 81.5227 328.559 81.7415 328.164 81.8977C327.769 82.0511 327.317 82.1278 326.809 82.1278ZM331.024 82V75.4545H332.52V76.5455H332.588C332.708 76.1676 332.912 75.8764 333.202 75.6719C333.495 75.4645 333.828 75.3608 334.203 75.3608C334.289 75.3608 334.384 75.3651 334.489 75.3736C334.597 75.3793 334.686 75.3892 334.757 75.4034V76.8224C334.692 76.7997 334.588 76.7798 334.446 76.7628C334.307 76.7429 334.172 76.733 334.041 76.733C333.76 76.733 333.507 76.794 333.283 76.9162C333.061 77.0355 332.887 77.2017 332.759 77.4148C332.631 77.6278 332.567 77.8736 332.567 78.152V82H331.024Z" fill="#2CAEC6"/>
<path d="M337.333 91L332.333 88.1132V93.8868L337.333 91ZM217.333 91.5H332.833V90.5H217.333V91.5Z" fill="#2CAEC6"/>
<path d="M354.178 24.8636V14.3636H356.267V15.6463H356.361C356.454 15.4408 356.588 15.232 356.764 15.0199C356.943 14.8045 357.175 14.6255 357.46 14.483C357.748 14.3371 358.106 14.2642 358.534 14.2642C359.09 14.2642 359.604 14.41 360.075 14.7017C360.545 14.9901 360.922 15.4259 361.203 16.0092C361.485 16.5893 361.626 17.3168 361.626 18.1918C361.626 19.0436 361.488 19.7628 361.213 20.3494C360.942 20.9328 360.57 21.3752 360.1 21.6768C359.632 21.9751 359.109 22.1243 358.529 22.1243C358.118 22.1243 357.768 22.0563 357.48 21.9205C357.195 21.7846 356.961 21.6139 356.779 21.4084C356.596 21.1996 356.457 20.9891 356.361 20.777H356.296V24.8636H354.178ZM356.252 18.1818C356.252 18.6359 356.315 19.032 356.441 19.37C356.567 19.7081 356.749 19.9716 356.987 20.1605C357.226 20.3461 357.516 20.4389 357.857 20.4389C358.202 20.4389 358.494 20.3445 358.732 20.1555C358.971 19.9633 359.152 19.6982 359.274 19.3601C359.4 19.0187 359.463 18.6259 359.463 18.1818C359.463 17.741 359.402 17.3532 359.279 17.0185C359.157 16.6837 358.976 16.4219 358.737 16.233C358.499 16.044 358.205 15.9496 357.857 15.9496C357.513 15.9496 357.221 16.0407 356.982 16.223C356.747 16.4053 356.567 16.6638 356.441 16.9986C356.315 17.3333 356.252 17.7277 356.252 18.1818ZM365.852 22.1243C365.272 22.1243 364.746 21.9751 364.276 21.6768C363.808 21.3752 363.437 20.9328 363.162 20.3494C362.89 19.7628 362.754 19.0436 362.754 18.1918C362.754 17.3168 362.895 16.5893 363.177 16.0092C363.459 15.4259 363.833 14.9901 364.301 14.7017C364.771 14.41 365.287 14.2642 365.847 14.2642C366.274 14.2642 366.631 14.3371 366.916 14.483C367.204 14.6255 367.436 14.8045 367.612 15.0199C367.791 15.232 367.927 15.4408 368.019 15.6463H368.084V11.8182H370.197V22H368.109V20.777H368.019C367.92 20.9891 367.779 21.1996 367.597 21.4084C367.418 21.6139 367.184 21.7846 366.896 21.9205C366.611 22.0563 366.263 22.1243 365.852 22.1243ZM366.523 20.4389C366.864 20.4389 367.153 20.3461 367.388 20.1605C367.627 19.9716 367.809 19.7081 367.935 19.37C368.064 19.032 368.129 18.6359 368.129 18.1818C368.129 17.7277 368.066 17.3333 367.94 16.9986C367.814 16.6638 367.632 16.4053 367.393 16.223C367.154 16.0407 366.864 15.9496 366.523 15.9496C366.175 15.9496 365.882 16.044 365.643 16.233C365.404 16.4219 365.224 16.6837 365.101 17.0185C364.978 17.3532 364.917 17.741 364.917 18.1818C364.917 18.6259 364.978 19.0187 365.101 19.3601C365.227 19.6982 365.408 19.9633 365.643 20.1555C365.882 20.3445 366.175 20.4389 366.523 20.4389ZM376.045 14.3636V15.9545H371.332V14.3636H376.045ZM372.411 22V13.8118C372.411 13.2583 372.518 12.7992 372.734 12.4347C372.952 12.0701 373.251 11.7966 373.629 11.6143C374.006 11.4321 374.436 11.3409 374.916 11.3409C375.241 11.3409 375.538 11.3658 375.806 11.4155C376.078 11.4652 376.28 11.5099 376.413 11.5497L376.035 13.1406C375.952 13.1141 375.849 13.0893 375.727 13.0661C375.607 13.0429 375.485 13.0312 375.359 13.0312C375.047 13.0312 374.83 13.1042 374.707 13.25C374.585 13.3925 374.523 13.593 374.523 13.8516V22H372.411ZM377.339 22V14.3636H379.357V15.7109H379.447C379.606 15.2635 379.871 14.9105 380.242 14.652C380.613 14.3935 381.057 14.2642 381.574 14.2642C382.098 14.2642 382.544 14.3951 382.912 14.657C383.28 14.9155 383.525 15.2668 383.648 15.7109H383.727C383.883 15.2734 384.165 14.9238 384.572 14.6619C384.983 14.3968 385.469 14.2642 386.029 14.2642C386.742 14.2642 387.32 14.4912 387.764 14.9453C388.212 15.3961 388.435 16.0357 388.435 16.8643V22H386.322V17.282C386.322 16.8577 386.21 16.5395 385.984 16.3274C385.759 16.1153 385.477 16.0092 385.139 16.0092C384.755 16.0092 384.455 16.1319 384.239 16.3771C384.024 16.6191 383.916 16.9389 383.916 17.3366V22H381.863V17.2372C381.863 16.8627 381.755 16.5644 381.54 16.3423C381.328 16.1203 381.047 16.0092 380.699 16.0092C380.464 16.0092 380.252 16.0689 380.063 16.1882C379.877 16.3042 379.73 16.4683 379.621 16.6804C379.511 16.8892 379.457 17.1345 379.457 17.4162V22H377.339ZM392.286 22.1442C391.799 22.1442 391.364 22.0597 390.983 21.8906C390.602 21.7183 390.3 21.4647 390.078 21.13C389.86 20.7919 389.75 20.371 389.75 19.8672C389.75 19.4429 389.828 19.0866 389.984 18.7983C390.14 18.5099 390.352 18.2779 390.62 18.1023C390.889 17.9266 391.194 17.794 391.535 17.7045C391.88 17.6151 392.241 17.5521 392.619 17.5156C393.063 17.4692 393.421 17.4261 393.693 17.3864C393.964 17.3433 394.162 17.2803 394.284 17.1974C394.407 17.1146 394.468 16.992 394.468 16.8295V16.7997C394.468 16.4848 394.369 16.2412 394.17 16.0689C393.974 15.8965 393.696 15.8104 393.335 15.8104C392.954 15.8104 392.65 15.8949 392.425 16.0639C392.2 16.2296 392.05 16.4384 391.977 16.6903L390.019 16.5312C390.118 16.0672 390.314 15.6662 390.605 15.3281C390.897 14.9867 391.273 14.7249 391.734 14.5426C392.198 14.357 392.735 14.2642 393.345 14.2642C393.769 14.2642 394.175 14.3139 394.563 14.4134C394.954 14.5128 395.3 14.6669 395.602 14.8757C395.907 15.0845 396.147 15.353 396.323 15.6811C396.498 16.0059 396.586 16.3954 396.586 16.8494V22H394.578V20.9411H394.518C394.395 21.1797 394.231 21.3902 394.026 21.5724C393.82 21.7514 393.573 21.8923 393.285 21.995C392.997 22.0945 392.664 22.1442 392.286 22.1442ZM392.892 20.6825C393.204 20.6825 393.479 20.6212 393.718 20.4986C393.956 20.3726 394.143 20.2036 394.279 19.9915C394.415 19.7794 394.483 19.5391 394.483 19.2706V18.4602C394.417 18.5033 394.326 18.5431 394.21 18.5795C394.097 18.6127 393.969 18.6442 393.827 18.674C393.684 18.7005 393.542 18.7254 393.399 18.7486C393.257 18.7685 393.128 18.7867 393.012 18.8033C392.763 18.8397 392.546 18.8977 392.36 18.9773C392.175 19.0568 392.031 19.1645 391.928 19.3004C391.825 19.433 391.774 19.5987 391.774 19.7976C391.774 20.0859 391.878 20.3063 392.087 20.4588C392.299 20.608 392.567 20.6825 392.892 20.6825ZM400.148 19.8026L400.153 17.2621H400.462L402.908 14.3636H405.339L402.052 18.2017H401.55L400.148 19.8026ZM398.229 22V11.8182H400.347V22H398.229ZM403.002 22L400.755 18.674L402.167 17.1776L405.483 22H403.002ZM409.543 22.1491C408.758 22.1491 408.082 21.9901 407.515 21.6719C406.952 21.3504 406.517 20.8963 406.212 20.3097C405.907 19.7197 405.755 19.022 405.755 18.2166C405.755 17.4311 405.907 16.7417 406.212 16.1484C406.517 15.5552 406.947 15.0928 407.5 14.7614C408.057 14.4299 408.71 14.2642 409.459 14.2642C409.963 14.2642 410.432 14.3454 410.866 14.5078C411.303 14.6669 411.684 14.9072 412.009 15.2287C412.337 15.5502 412.593 15.9545 412.775 16.4418C412.957 16.9257 413.048 17.4924 413.048 18.142V18.7237H406.6V17.4112H411.055C411.055 17.1063 410.988 16.8362 410.856 16.6009C410.723 16.3655 410.539 16.1816 410.304 16.049C410.072 15.9131 409.802 15.8452 409.494 15.8452C409.172 15.8452 408.887 15.9197 408.639 16.0689C408.393 16.2147 408.201 16.4119 408.062 16.6605C407.923 16.9058 407.851 17.1792 407.848 17.4808V18.7287C407.848 19.1065 407.918 19.433 408.057 19.7081C408.199 19.9832 408.4 20.1953 408.658 20.3445C408.917 20.4936 409.224 20.5682 409.578 20.5682C409.813 20.5682 410.029 20.535 410.224 20.4688C410.42 20.4025 410.587 20.303 410.727 20.1705C410.866 20.0379 410.972 19.8755 411.045 19.6832L413.004 19.8125C412.904 20.2831 412.7 20.6941 412.392 21.0455C412.087 21.3935 411.693 21.6652 411.209 21.8608C410.728 22.053 410.173 22.1491 409.543 22.1491ZM417.671 22V14.3636H419.789V22H417.671ZM418.735 13.3793C418.42 13.3793 418.15 13.2749 417.924 13.0661C417.702 12.8539 417.591 12.6004 417.591 12.3054C417.591 12.0137 417.702 11.7635 417.924 11.5547C418.15 11.3426 418.42 11.2365 418.735 11.2365C419.049 11.2365 419.318 11.3426 419.54 11.5547C419.765 11.7635 419.878 12.0137 419.878 12.3054C419.878 12.6004 419.765 12.8539 419.54 13.0661C419.318 13.2749 419.049 13.3793 418.735 13.3793ZM423.603 17.5852V22H421.485V14.3636H423.504V15.7109H423.593C423.762 15.2668 424.045 14.9155 424.443 14.657C424.841 14.3951 425.323 14.2642 425.89 14.2642C426.42 14.2642 426.883 14.3802 427.277 14.6122C427.671 14.8442 427.978 15.1757 428.197 15.6065C428.416 16.0341 428.525 16.5445 428.525 17.1378V22H426.407V17.5156C426.41 17.0483 426.291 16.6837 426.049 16.4219C425.807 16.1567 425.474 16.0241 425.05 16.0241C424.765 16.0241 424.513 16.0855 424.294 16.2081C424.079 16.3307 423.91 16.5097 423.787 16.745C423.668 16.977 423.606 17.2571 423.603 17.5852ZM430.194 24.8636V14.3636H432.282V15.6463H432.377C432.469 15.4408 432.604 15.232 432.779 15.0199C432.958 14.8045 433.19 14.6255 433.475 14.483C433.764 14.3371 434.122 14.2642 434.549 14.2642C435.106 14.2642 435.62 14.41 436.09 14.7017C436.561 14.9901 436.937 15.4259 437.219 16.0092C437.501 16.5893 437.642 17.3168 437.642 18.1918C437.642 19.0436 437.504 19.7628 437.229 20.3494C436.957 20.9328 436.586 21.3752 436.115 21.6768C435.648 21.9751 435.124 22.1243 434.544 22.1243C434.133 22.1243 433.784 22.0563 433.495 21.9205C433.21 21.7846 432.977 21.6139 432.794 21.4084C432.612 21.1996 432.473 20.9891 432.377 20.777H432.312V24.8636H430.194ZM432.267 18.1818C432.267 18.6359 432.33 19.032 432.456 19.37C432.582 19.7081 432.764 19.9716 433.003 20.1605C433.242 20.3461 433.532 20.4389 433.873 20.4389C434.218 20.4389 434.509 20.3445 434.748 20.1555C434.987 19.9633 435.167 19.6982 435.29 19.3601C435.416 19.0187 435.479 18.6259 435.479 18.1818C435.479 17.741 435.418 17.3532 435.295 17.0185C435.172 16.6837 434.992 16.4219 434.753 16.233C434.514 16.044 434.221 15.9496 433.873 15.9496C433.528 15.9496 433.237 16.0407 432.998 16.223C432.763 16.4053 432.582 16.6638 432.456 16.9986C432.33 17.3333 432.267 17.7277 432.267 18.1818ZM443.951 18.7486V14.3636H446.068V22H444.035V20.6129H443.955C443.783 21.0604 443.496 21.42 443.095 21.6918C442.698 21.9635 442.212 22.0994 441.639 22.0994C441.128 22.0994 440.679 21.9834 440.291 21.7514C439.904 21.5194 439.6 21.1896 439.382 20.7621C439.166 20.3345 439.057 19.8224 439.053 19.2259V14.3636H441.171V18.848C441.175 19.2988 441.296 19.6551 441.534 19.9169C441.773 20.1787 442.093 20.3097 442.494 20.3097C442.749 20.3097 442.988 20.2517 443.21 20.1357C443.432 20.0163 443.611 19.8407 443.747 19.6087C443.886 19.3767 443.954 19.09 443.951 18.7486ZM451.824 14.3636V15.9545H447.226V14.3636H451.824ZM448.27 12.5341H450.387V19.6534C450.387 19.849 450.417 20.0014 450.477 20.1108C450.537 20.2169 450.619 20.2914 450.726 20.3345C450.835 20.3776 450.961 20.3991 451.103 20.3991C451.203 20.3991 451.302 20.3909 451.402 20.3743C451.501 20.3544 451.577 20.3395 451.63 20.3295L451.963 21.9055C451.857 21.9387 451.708 21.9768 451.516 22.0199C451.324 22.0663 451.09 22.0945 450.815 22.1044C450.305 22.1243 449.857 22.0563 449.473 21.9006C449.092 21.7448 448.795 21.5028 448.583 21.1747C448.371 20.8466 448.266 20.4323 448.27 19.9318V12.5341Z" fill="#2CAEC6"/>
<g filter="url(#filter1_d_82_267)">
<rect x="353.333" y="35" width="193.333" height="103" rx="4" fill="#0C1011"/>
<path d="M374.973 69.82C374.501 69.82 374.093 69.74 373.749 69.58C373.413 69.428 373.157 69.2 372.981 68.896C372.805 68.6 372.729 68.244 372.753 67.828L372.873 65.86C372.889 65.564 372.865 65.332 372.801 65.164C372.745 64.988 372.629 64.86 372.453 64.78C372.277 64.7 372.017 64.66 371.673 64.66H370.353V63.7H371.673C372.017 63.7 372.277 63.66 372.453 63.58C372.629 63.5 372.745 63.376 372.801 63.208C372.865 63.04 372.889 62.804 372.873 62.5L372.753 60.532C372.729 60.116 372.805 59.76 372.981 59.464C373.157 59.16 373.413 58.932 373.749 58.78C374.093 58.62 374.501 58.54 374.973 58.54H375.513V59.5H374.973C374.589 59.5 374.297 59.588 374.097 59.764C373.905 59.94 373.817 60.196 373.833 60.532L373.953 62.5C373.985 63.02 373.861 63.436 373.581 63.748C373.301 64.052 372.905 64.204 372.393 64.204V64.144C372.897 64.144 373.289 64.3 373.569 64.612C373.857 64.924 373.985 65.34 373.953 65.86L373.833 67.828C373.817 68.164 373.905 68.42 374.097 68.596C374.297 68.772 374.589 68.86 374.973 68.86H375.513V69.82H374.973ZM388.044 83.5C387.476 83.5 387.032 83.348 386.712 83.044C386.4 82.74 386.244 82.312 386.244 81.76V77.884H384.384V76.9H386.244V75.1H387.324V76.9H389.964V77.884H387.324V81.76C387.324 82.016 387.38 82.208 387.492 82.336C387.612 82.456 387.796 82.516 388.044 82.516H389.844V83.5H388.044ZM394.519 83.62C394.007 83.62 393.559 83.516 393.175 83.308C392.791 83.1 392.495 82.808 392.287 82.432C392.079 82.048 391.975 81.604 391.975 81.1V79.3C391.975 78.796 392.079 78.356 392.287 77.98C392.495 77.596 392.791 77.3 393.175 77.092C393.559 76.884 394.007 76.78 394.519 76.78C395.031 76.78 395.479 76.884 395.863 77.092C396.247 77.3 396.543 77.596 396.751 77.98C396.959 78.356 397.063 78.796 397.063 79.3V80.464H393.031V81.1C393.031 81.628 393.155 82.028 393.403 82.3C393.659 82.572 394.031 82.708 394.519 82.708C394.935 82.708 395.263 82.636 395.503 82.492C395.751 82.34 395.903 82.116 395.959 81.82H397.039C396.967 82.372 396.703 82.812 396.247 83.14C395.791 83.46 395.215 83.62 394.519 83.62ZM396.007 79.3C396.007 78.772 395.879 78.372 395.623 78.1C395.375 77.82 395.007 77.68 394.519 77.68C394.031 77.68 393.659 77.82 393.403 78.1C393.155 78.372 393.031 78.772 393.031 79.3V79.648H396.091L396.007 79.744V79.3ZM398.775 83.5L401.055 80.104L398.919 76.9H400.191L401.439 78.94C401.535 79.092 401.631 79.272 401.727 79.48C401.815 79.272 401.907 79.092 402.003 78.94L403.263 76.9H404.523L402.387 80.116L404.655 83.5H403.383L402.027 81.34C401.939 81.188 401.839 80.992 401.727 80.752C401.607 80.984 401.499 81.18 401.403 81.34L400.035 83.5H398.775ZM409.63 83.5C409.062 83.5 408.618 83.348 408.298 83.044C407.986 82.74 407.83 82.312 407.83 81.76V77.884H405.97V76.9H407.83V75.1H408.91V76.9H411.55V77.884H408.91V81.76C408.91 82.016 408.966 82.208 409.078 82.336C409.198 82.456 409.382 82.516 409.63 82.516H411.43V83.5H409.63ZM415.985 78.58C415.721 78.58 415.505 78.496 415.337 78.328C415.169 78.16 415.085 77.944 415.085 77.68C415.085 77.424 415.169 77.212 415.337 77.044C415.513 76.868 415.729 76.78 415.985 76.78H416.225C416.481 76.78 416.693 76.868 416.861 77.044C417.037 77.212 417.125 77.424 417.125 77.68C417.125 77.944 417.041 78.16 416.873 78.328C416.705 78.496 416.489 78.58 416.225 78.58H415.985ZM415.985 83.62C415.721 83.62 415.505 83.536 415.337 83.368C415.169 83.2 415.085 82.984 415.085 82.72C415.085 82.464 415.169 82.252 415.337 82.084C415.513 81.908 415.729 81.82 415.985 81.82H416.225C416.481 81.82 416.693 81.908 416.861 82.084C417.037 82.252 417.125 82.464 417.125 82.72C417.125 82.984 417.041 83.2 416.873 83.368C416.705 83.536 416.489 83.62 416.225 83.62H415.985ZM522.415 85.42L523.375 81.688H524.935L523.375 85.42H522.415ZM387.708 98.62C387.156 98.62 386.716 98.476 386.388 98.188C386.068 97.892 385.908 97.492 385.908 96.988L386.124 97.24H385.908V98.5H384.828V89.74H385.908V91.66L385.884 93.16H386.124L385.908 93.412C385.908 92.916 386.072 92.52 386.4 92.224C386.728 91.928 387.164 91.78 387.708 91.78C388.372 91.78 388.896 92 389.28 92.44C389.672 92.88 389.868 93.48 389.868 94.24V96.172C389.868 96.924 389.672 97.52 389.28 97.96C388.896 98.4 388.372 98.62 387.708 98.62ZM387.348 97.684C387.804 97.684 388.156 97.548 388.404 97.276C388.66 96.996 388.788 96.604 388.788 96.1V94.3C388.788 93.796 388.66 93.408 388.404 93.136C388.156 92.856 387.804 92.716 387.348 92.716C386.9 92.716 386.548 92.856 386.292 93.136C386.036 93.416 385.908 93.804 385.908 94.3V96.1C385.908 96.596 386.036 96.984 386.292 97.264C386.548 97.544 386.9 97.684 387.348 97.684ZM394.519 98.62C393.999 98.62 393.547 98.52 393.163 98.32C392.779 98.12 392.483 97.832 392.275 97.456C392.075 97.072 391.975 96.62 391.975 96.1V94.3C391.975 93.78 392.075 93.332 392.275 92.956C392.483 92.572 392.779 92.28 393.163 92.08C393.547 91.88 393.999 91.78 394.519 91.78C395.039 91.78 395.491 91.88 395.875 92.08C396.259 92.28 396.551 92.572 396.751 92.956C396.959 93.332 397.063 93.776 397.063 94.288V96.1C397.063 96.62 396.959 97.072 396.751 97.456C396.551 97.832 396.259 98.12 395.875 98.32C395.491 98.52 395.039 98.62 394.519 98.62ZM394.519 97.66C394.991 97.66 395.351 97.528 395.599 97.264C395.855 96.992 395.983 96.604 395.983 96.1V94.3C395.983 93.796 395.855 93.412 395.599 93.148C395.351 92.876 394.991 92.74 394.519 92.74C394.047 92.74 393.683 92.876 393.427 93.148C393.179 93.412 393.055 93.796 393.055 94.3V96.1C393.055 96.604 393.179 96.992 393.427 97.264C393.683 97.528 394.047 97.66 394.519 97.66ZM402.495 98.5C401.911 98.5 401.443 98.332 401.091 97.996C400.747 97.652 400.575 97.2 400.575 96.64V90.724H398.595V89.74H401.655V96.64C401.655 96.912 401.731 97.128 401.883 97.288C402.035 97.44 402.239 97.516 402.495 97.516H404.715V98.5H402.495ZM408.526 98.62C407.862 98.62 407.334 98.4 406.942 97.96C406.558 97.52 406.366 96.924 406.366 96.172V94.24C406.366 93.48 406.558 92.88 406.942 92.44C407.334 92 407.862 91.78 408.526 91.78C409.07 91.78 409.506 91.928 409.834 92.224C410.162 92.52 410.326 92.916 410.326 93.412L410.11 93.16H410.35L410.326 91.66V89.74H411.406V98.5H410.326V97.24H410.11L410.326 96.988C410.326 97.492 410.162 97.892 409.834 98.188C409.514 98.476 409.078 98.62 408.526 98.62ZM408.886 97.684C409.334 97.684 409.686 97.544 409.942 97.264C410.198 96.984 410.326 96.596 410.326 96.1V94.3C410.326 93.804 410.198 93.416 409.942 93.136C409.686 92.856 409.334 92.716 408.886 92.716C408.43 92.716 408.074 92.856 407.818 93.136C407.57 93.408 407.446 93.796 407.446 94.3V96.1C407.446 96.604 407.57 96.996 407.818 97.276C408.074 97.548 408.43 97.684 408.886 97.684ZM415.985 93.58C415.721 93.58 415.505 93.496 415.337 93.328C415.169 93.16 415.085 92.944 415.085 92.68C415.085 92.424 415.169 92.212 415.337 92.044C415.513 91.868 415.729 91.78 415.985 91.78H416.225C416.481 91.78 416.693 91.868 416.861 92.044C417.037 92.212 417.125 92.424 417.125 92.68C417.125 92.944 417.041 93.16 416.873 93.328C416.705 93.496 416.489 93.58 416.225 93.58H415.985ZM415.985 98.62C415.721 98.62 415.505 98.536 415.337 98.368C415.169 98.2 415.085 97.984 415.085 97.72C415.085 97.464 415.169 97.252 415.337 97.084C415.513 96.908 415.729 96.82 415.985 96.82H416.225C416.481 96.82 416.693 96.908 416.861 97.084C417.037 97.252 417.125 97.464 417.125 97.72C417.125 97.984 417.041 98.2 416.873 98.368C416.705 98.536 416.489 98.62 416.225 98.62H415.985ZM370.353 114.82V113.86H370.893C371.277 113.86 371.565 113.772 371.757 113.596C371.957 113.42 372.049 113.164 372.033 112.828L371.913 110.86C371.881 110.34 372.005 109.924 372.285 109.612C372.573 109.3 372.969 109.144 373.473 109.144V109.204C372.961 109.204 372.565 109.052 372.285 108.748C372.005 108.436 371.881 108.02 371.913 107.5L372.033 105.532C372.049 105.196 371.957 104.94 371.757 104.764C371.565 104.588 371.277 104.5 370.893 104.5H370.353V103.54H370.893C371.365 103.54 371.769 103.62 372.105 103.78C372.449 103.932 372.709 104.16 372.885 104.464C373.061 104.76 373.137 105.116 373.113 105.532L372.993 107.5C372.977 107.804 372.997 108.04 373.053 108.208C373.117 108.376 373.237 108.5 373.413 108.58C373.589 108.66 373.849 108.7 374.193 108.7H375.513V109.66H374.193C373.849 109.66 373.589 109.7 373.413 109.78C373.237 109.86 373.117 109.988 373.053 110.164C372.997 110.332 372.977 110.564 372.993 110.86L373.113 112.828C373.137 113.244 373.061 113.6 372.885 113.896C372.709 114.2 372.449 114.428 372.105 114.58C371.769 114.74 371.365 114.82 370.893 114.82H370.353Z" fill="white"/>
<path d="M429.992 78.34L429.848 76.54V74.74H431.012V76.54L430.88 78.34H429.992ZM435.207 83.5V74.74H436.287V78.484H439.095V74.74H440.175V83.5H439.095V79.468H436.287V83.5H435.207ZM444.886 83.62C444.374 83.62 443.926 83.516 443.542 83.308C443.158 83.1 442.862 82.808 442.654 82.432C442.446 82.048 442.342 81.604 442.342 81.1V79.3C442.342 78.796 442.446 78.356 442.654 77.98C442.862 77.596 443.158 77.3 443.542 77.092C443.926 76.884 444.374 76.78 444.886 76.78C445.398 76.78 445.846 76.884 446.23 77.092C446.614 77.3 446.91 77.596 447.118 77.98C447.326 78.356 447.43 78.796 447.43 79.3V80.464H443.398V81.1C443.398 81.628 443.522 82.028 443.77 82.3C444.026 82.572 444.398 82.708 444.886 82.708C445.302 82.708 445.63 82.636 445.87 82.492C446.118 82.34 446.27 82.116 446.326 81.82H447.406C447.334 82.372 447.07 82.812 446.614 83.14C446.158 83.46 445.582 83.62 444.886 83.62ZM446.374 79.3C446.374 78.772 446.246 78.372 445.99 78.1C445.742 77.82 445.374 77.68 444.886 77.68C444.398 77.68 444.026 77.82 443.77 78.1C443.522 78.372 443.398 78.772 443.398 79.3V79.648H446.458L446.374 79.744V79.3ZM452.862 83.5C452.278 83.5 451.81 83.332 451.458 82.996C451.114 82.652 450.942 82.2 450.942 81.64V75.724H448.962V74.74H452.022V81.64C452.022 81.912 452.098 82.128 452.25 82.288C452.402 82.44 452.606 82.516 452.862 82.516H455.082V83.5H452.862ZM460.057 83.5C459.473 83.5 459.005 83.332 458.653 82.996C458.309 82.652 458.137 82.2 458.137 81.64V75.724H456.157V74.74H459.217V81.64C459.217 81.912 459.293 82.128 459.445 82.288C459.597 82.44 459.801 82.516 460.057 82.516H462.277V83.5H460.057ZM466.472 83.62C465.952 83.62 465.5 83.52 465.116 83.32C464.732 83.12 464.436 82.832 464.228 82.456C464.028 82.072 463.928 81.62 463.928 81.1V79.3C463.928 78.78 464.028 78.332 464.228 77.956C464.436 77.572 464.732 77.28 465.116 77.08C465.5 76.88 465.952 76.78 466.472 76.78C466.992 76.78 467.444 76.88 467.828 77.08C468.212 77.28 468.504 77.572 468.704 77.956C468.912 78.332 469.016 78.776 469.016 79.288V81.1C469.016 81.62 468.912 82.072 468.704 82.456C468.504 82.832 468.212 83.12 467.828 83.32C467.444 83.52 466.992 83.62 466.472 83.62ZM466.472 82.66C466.944 82.66 467.304 82.528 467.552 82.264C467.808 81.992 467.936 81.604 467.936 81.1V79.3C467.936 78.796 467.808 78.412 467.552 78.148C467.304 77.876 466.944 77.74 466.472 77.74C466 77.74 465.636 77.876 465.38 78.148C465.132 78.412 465.008 78.796 465.008 79.3V81.1C465.008 81.604 465.132 81.992 465.38 82.264C465.636 82.528 466 82.66 466.472 82.66ZM478.739 83.5L477.683 76.9H478.643L479.303 81.58C479.351 81.884 479.399 82.244 479.447 82.66C479.511 82.244 479.567 81.884 479.615 81.58L480.347 76.9H481.379L482.111 81.58C482.159 81.884 482.215 82.244 482.279 82.66C482.343 82.244 482.399 81.884 482.447 81.58L483.131 76.9H484.043L482.939 83.5H481.751L481.043 78.94L480.851 77.74L480.671 78.94L479.927 83.5H478.739ZM488.058 83.62C487.538 83.62 487.086 83.52 486.702 83.32C486.318 83.12 486.022 82.832 485.814 82.456C485.614 82.072 485.514 81.62 485.514 81.1V79.3C485.514 78.78 485.614 78.332 485.814 77.956C486.022 77.572 486.318 77.28 486.702 77.08C487.086 76.88 487.538 76.78 488.058 76.78C488.578 76.78 489.03 76.88 489.414 77.08C489.798 77.28 490.09 77.572 490.29 77.956C490.498 78.332 490.602 78.776 490.602 79.288V81.1C490.602 81.62 490.498 82.072 490.29 82.456C490.09 82.832 489.798 83.12 489.414 83.32C489.03 83.52 488.578 83.62 488.058 83.62ZM488.058 82.66C488.53 82.66 488.89 82.528 489.138 82.264C489.394 81.992 489.522 81.604 489.522 81.1V79.3C489.522 78.796 489.394 78.412 489.138 78.148C488.89 77.876 488.53 77.74 488.058 77.74C487.586 77.74 487.222 77.876 486.966 78.148C486.718 78.412 486.594 78.796 486.594 79.3V81.1C486.594 81.604 486.718 81.992 486.966 82.264C487.222 82.528 487.586 82.66 488.058 82.66ZM492.986 83.5V76.9H494.042V78.16H494.294L493.946 78.94C493.946 78.228 494.098 77.692 494.402 77.332C494.714 76.964 495.174 76.78 495.782 76.78C496.478 76.78 497.03 77 497.438 77.44C497.854 77.872 498.062 78.46 498.062 79.204V79.6H496.982V79.3C496.982 78.788 496.854 78.392 496.598 78.112C496.35 77.832 495.994 77.692 495.53 77.692C495.074 77.692 494.714 77.836 494.45 78.124C494.194 78.404 494.066 78.796 494.066 79.3V83.5H492.986ZM503.229 83.5C502.645 83.5 502.177 83.332 501.825 82.996C501.481 82.652 501.309 82.2 501.309 81.64V75.724H499.329V74.74H502.389V81.64C502.389 81.912 502.465 82.128 502.617 82.288C502.769 82.44 502.973 82.516 503.229 82.516H505.449V83.5H503.229ZM509.26 83.62C508.596 83.62 508.068 83.4 507.676 82.96C507.292 82.52 507.1 81.924 507.1 81.172V79.24C507.1 78.48 507.292 77.88 507.676 77.44C508.068 77 508.596 76.78 509.26 76.78C509.804 76.78 510.24 76.928 510.568 77.224C510.896 77.52 511.06 77.916 511.06 78.412L510.844 78.16H511.084L511.06 76.66V74.74H512.14V83.5H511.06V82.24H510.844L511.06 81.988C511.06 82.492 510.896 82.892 510.568 83.188C510.248 83.476 509.812 83.62 509.26 83.62ZM509.62 82.684C510.068 82.684 510.42 82.544 510.676 82.264C510.932 81.984 511.06 81.596 511.06 81.1V79.3C511.06 78.804 510.932 78.416 510.676 78.136C510.42 77.856 510.068 77.716 509.62 77.716C509.164 77.716 508.808 77.856 508.552 78.136C508.304 78.408 508.18 78.796 508.18 79.3V81.1C508.18 81.604 508.304 81.996 508.552 82.276C508.808 82.548 509.164 82.684 509.62 82.684ZM516.336 78.34L516.192 76.54V74.74H517.356V76.54L517.224 78.34H516.336Z" fill="#2CAEC6"/>
<path d="M431.216 98.5C430.648 98.5 430.204 98.348 429.884 98.044C429.572 97.74 429.416 97.312 429.416 96.76V92.884H427.556V91.9H429.416V90.1H430.496V91.9H433.136V92.884H430.496V96.76C430.496 97.016 430.552 97.208 430.664 97.336C430.784 97.456 430.968 97.516 431.216 97.516H433.016V98.5H431.216ZM435.423 98.5V91.9H436.479V93.16H436.731L436.383 93.94C436.383 93.228 436.535 92.692 436.839 92.332C437.151 91.964 437.611 91.78 438.219 91.78C438.915 91.78 439.467 92 439.875 92.44C440.291 92.872 440.499 93.46 440.499 94.204V94.6H439.419V94.3C439.419 93.788 439.291 93.392 439.035 93.112C438.787 92.832 438.431 92.692 437.967 92.692C437.511 92.692 437.151 92.836 436.887 93.124C436.631 93.404 436.503 93.796 436.503 94.3V98.5H435.423ZM444.874 98.62C444.114 98.62 443.506 98.392 443.05 97.936C442.594 97.48 442.366 96.868 442.366 96.1V91.9H443.446V96.1C443.446 96.596 443.57 96.984 443.818 97.264C444.074 97.536 444.426 97.672 444.874 97.672C445.33 97.672 445.686 97.536 445.942 97.264C446.198 96.984 446.326 96.596 446.326 96.1V91.9H447.406V96.1C447.406 96.868 447.174 97.48 446.71 97.936C446.254 98.392 445.642 98.62 444.874 98.62ZM452.082 98.62C451.57 98.62 451.122 98.516 450.738 98.308C450.354 98.1 450.058 97.808 449.85 97.432C449.642 97.048 449.538 96.604 449.538 96.1V94.3C449.538 93.796 449.642 93.356 449.85 92.98C450.058 92.596 450.354 92.3 450.738 92.092C451.122 91.884 451.57 91.78 452.082 91.78C452.594 91.78 453.042 91.884 453.426 92.092C453.81 92.3 454.106 92.596 454.314 92.98C454.522 93.356 454.626 93.796 454.626 94.3V95.464H450.594V96.1C450.594 96.628 450.718 97.028 450.966 97.3C451.222 97.572 451.594 97.708 452.082 97.708C452.498 97.708 452.826 97.636 453.066 97.492C453.314 97.34 453.466 97.116 453.522 96.82H454.602C454.53 97.372 454.266 97.812 453.81 98.14C453.354 98.46 452.778 98.62 452.082 98.62ZM453.57 94.3C453.57 93.772 453.442 93.372 453.186 93.1C452.938 92.82 452.57 92.68 452.082 92.68C451.594 92.68 451.222 92.82 450.966 93.1C450.718 93.372 450.594 93.772 450.594 94.3V94.648H453.654L453.57 94.744V94.3Z" fill="#396ED6"/>
</g>
<path d="M598 76.9545V67.9545H599.517V69.0369H599.607C599.686 68.8778 599.799 68.7088 599.943 68.5298C600.088 68.348 600.284 68.1932 600.532 68.0653C600.779 67.9347 601.094 67.8693 601.478 67.8693C601.983 67.8693 602.439 67.9986 602.845 68.2571C603.255 68.5128 603.578 68.892 603.817 69.3949C604.058 69.8949 604.179 70.5085 604.179 71.2358C604.179 71.9545 604.061 72.5653 603.826 73.0682C603.59 73.571 603.269 73.9545 602.862 74.2188C602.456 74.483 601.996 74.6151 601.482 74.6151C601.107 74.6151 600.796 74.5526 600.549 74.4276C600.301 74.3026 600.103 74.152 599.952 73.9759C599.804 73.7969 599.689 73.6278 599.607 73.4688H599.543V76.9545H598ZM599.513 71.2273C599.513 71.6506 599.573 72.0213 599.692 72.3395C599.814 72.6577 599.989 72.9062 600.216 73.0852C600.446 73.2614 600.725 73.3494 601.051 73.3494C601.392 73.3494 601.678 73.2585 601.908 73.0767C602.138 72.892 602.311 72.6406 602.428 72.3224C602.547 72.0014 602.607 71.6364 602.607 71.2273C602.607 70.821 602.549 70.4602 602.432 70.1449C602.316 69.8295 602.142 69.5824 601.912 69.4034C601.682 69.2244 601.395 69.1349 601.051 69.1349C600.722 69.1349 600.442 69.2216 600.212 69.3949C599.982 69.5682 599.807 69.8111 599.688 70.1236C599.571 70.4361 599.513 70.804 599.513 71.2273ZM607.929 74.6151C607.415 74.6151 606.955 74.483 606.549 74.2188C606.142 73.9545 605.821 73.571 605.585 73.0682C605.35 72.5653 605.232 71.9545 605.232 71.2358C605.232 70.5085 605.351 69.8949 605.59 69.3949C605.831 68.892 606.157 68.5128 606.566 68.2571C606.975 67.9986 607.431 67.8693 607.933 67.8693C608.317 67.8693 608.632 67.9347 608.88 68.0653C609.127 68.1932 609.323 68.348 609.468 68.5298C609.612 68.7088 609.725 68.8778 609.804 69.0369H609.868V65.7727H611.415V74.5H609.898V73.4688H609.804C609.725 73.6278 609.61 73.7969 609.459 73.9759C609.308 74.152 609.11 74.3026 608.862 74.4276C608.615 74.5526 608.304 74.6151 607.929 74.6151ZM608.36 73.3494C608.686 73.3494 608.965 73.2614 609.195 73.0852C609.425 72.9062 609.6 72.6577 609.719 72.3395C609.838 72.0213 609.898 71.6506 609.898 71.2273C609.898 70.804 609.838 70.4361 609.719 70.1236C609.603 69.8111 609.429 69.5682 609.199 69.3949C608.972 69.2216 608.692 69.1349 608.36 69.1349C608.016 69.1349 607.729 69.2244 607.499 69.4034C607.269 69.5824 607.095 69.8295 606.979 70.1449C606.862 70.4602 606.804 70.821 606.804 71.2273C606.804 71.6364 606.862 72.0014 606.979 72.3224C607.098 72.6406 607.273 72.892 607.503 73.0767C607.736 73.2585 608.022 73.3494 608.36 73.3494ZM616.374 67.9545V69.1477H612.505V67.9545H616.374ZM613.472 74.5V67.3366C613.472 66.8963 613.563 66.5298 613.745 66.2372C613.93 65.9446 614.177 65.7259 614.486 65.581C614.796 65.4361 615.14 65.3636 615.518 65.3636C615.785 65.3636 616.022 65.3849 616.229 65.4276C616.437 65.4702 616.59 65.5085 616.69 65.5426L616.383 66.7358C616.317 66.7159 616.235 66.696 616.136 66.6761C616.036 66.6534 615.925 66.642 615.803 66.642C615.516 66.642 615.313 66.7116 615.194 66.8509C615.077 66.9872 615.019 67.1832 615.019 67.4389V74.5H613.472ZM617.582 74.5V67.9545H619.057V69.0668H619.133C619.27 68.6918 619.496 68.3991 619.811 68.1889C620.126 67.9759 620.503 67.8693 620.94 67.8693C621.383 67.8693 621.757 67.9773 622.061 68.1932C622.368 68.4062 622.584 68.6974 622.709 69.0668H622.777C622.922 68.7031 623.166 68.4134 623.51 68.1974C623.856 67.9787 624.267 67.8693 624.741 67.8693C625.344 67.8693 625.835 68.0597 626.216 68.4403C626.596 68.821 626.787 69.3764 626.787 70.1065V74.5H625.24V70.3452C625.24 69.9389 625.132 69.642 624.916 69.4545C624.7 69.2642 624.436 69.169 624.123 69.169C623.751 69.169 623.46 69.2855 623.25 69.5185C623.043 69.7486 622.939 70.0483 622.939 70.4176V74.5H621.426V70.2812C621.426 69.9432 621.324 69.6733 621.119 69.4716C620.918 69.2699 620.653 69.169 620.327 69.169C620.105 69.169 619.903 69.2259 619.721 69.3395C619.54 69.4503 619.395 69.608 619.287 69.8125C619.179 70.0142 619.125 70.25 619.125 70.5199V74.5H617.582ZM630.235 74.6321C629.821 74.6321 629.447 74.5582 629.115 74.4105C628.785 74.2599 628.524 74.0384 628.331 73.7457C628.14 73.4531 628.045 73.0923 628.045 72.6634C628.045 72.294 628.113 71.9886 628.25 71.7472C628.386 71.5057 628.572 71.3125 628.808 71.1676C629.044 71.0227 629.309 70.9134 629.605 70.8395C629.903 70.7628 630.211 70.7074 630.529 70.6733C630.913 70.6335 631.224 70.598 631.463 70.5668C631.701 70.5327 631.875 70.4815 631.982 70.4134C632.093 70.3423 632.149 70.233 632.149 70.0852V70.0597C632.149 69.7386 632.054 69.4901 631.863 69.3139C631.673 69.1378 631.399 69.0497 631.041 69.0497C630.663 69.0497 630.363 69.1321 630.142 69.2969C629.923 69.4616 629.775 69.6562 629.698 69.8807L628.258 69.6761C628.372 69.2784 628.559 68.946 628.821 68.679C629.082 68.4091 629.402 68.2074 629.779 68.0739C630.157 67.9375 630.575 67.8693 631.032 67.8693C631.348 67.8693 631.661 67.9062 631.974 67.9801C632.286 68.054 632.572 68.1761 632.831 68.3466C633.089 68.5142 633.296 68.7429 633.453 69.0327C633.612 69.3224 633.691 69.6847 633.691 70.1193V74.5H632.208V73.6009H632.157C632.063 73.7827 631.931 73.9531 631.761 74.1122C631.593 74.2685 631.382 74.3949 631.126 74.4915C630.873 74.5852 630.576 74.6321 630.235 74.6321ZM630.636 73.4986C630.946 73.4986 631.214 73.4375 631.441 73.3153C631.669 73.1903 631.843 73.0256 631.965 72.821C632.09 72.6165 632.153 72.3935 632.153 72.152V71.3807C632.105 71.4205 632.022 71.4574 631.906 71.4915C631.792 71.5256 631.664 71.5554 631.522 71.581C631.38 71.6065 631.24 71.6293 631.1 71.6491C630.961 71.669 630.84 71.6861 630.738 71.7003C630.508 71.7315 630.302 71.7827 630.12 71.8537C629.938 71.9247 629.795 72.0241 629.69 72.152C629.585 72.277 629.532 72.4389 629.532 72.6378C629.532 72.9219 629.636 73.1364 629.843 73.2812C630.051 73.4261 630.315 73.4986 630.636 73.4986ZM636.649 72.446L636.644 70.5838H636.892L639.244 67.9545H641.046L638.153 71.1761H637.833L636.649 72.446ZM635.242 74.5V65.7727H636.785V74.5H635.242ZM639.35 74.5L637.22 71.5213L638.259 70.4347L641.196 74.5H639.35ZM644.703 74.6278C644.046 74.6278 643.48 74.4915 643.002 74.2188C642.528 73.9432 642.163 73.554 641.907 73.0511C641.652 72.5455 641.524 71.9503 641.524 71.2656C641.524 70.5923 641.652 70.0014 641.907 69.4929C642.166 68.9815 642.527 68.5838 642.99 68.2997C643.453 68.0128 643.997 67.8693 644.622 67.8693C645.025 67.8693 645.406 67.9347 645.764 68.0653C646.125 68.1932 646.443 68.392 646.718 68.6619C646.997 68.9318 647.215 69.2756 647.375 69.6932C647.534 70.108 647.613 70.6023 647.613 71.1761V71.6491H642.248V70.6094H646.134C646.132 70.3139 646.068 70.0511 645.943 69.821C645.818 69.5881 645.643 69.4048 645.419 69.2713C645.197 69.1378 644.938 69.071 644.643 69.071C644.328 69.071 644.051 69.1477 643.812 69.3011C643.573 69.4517 643.387 69.6506 643.254 69.8977C643.123 70.142 643.056 70.4105 643.054 70.7031V71.6108C643.054 71.9915 643.123 72.3182 643.262 72.5909C643.402 72.8608 643.596 73.0682 643.846 73.2131C644.096 73.3551 644.389 73.4261 644.724 73.4261C644.948 73.4261 645.152 73.3949 645.333 73.3324C645.515 73.267 645.673 73.1719 645.806 73.0469C645.94 72.9219 646.041 72.767 646.109 72.5824L647.549 72.7443C647.458 73.125 647.285 73.4574 647.029 73.7415C646.777 74.0227 646.453 74.2415 646.058 74.3977C645.663 74.5511 645.211 74.6278 644.703 74.6278Z" fill="#2CAEC6"/>
<path d="M682.667 83.5L677.667 80.6132V86.3868L682.667 83.5ZM562.667 84H678.167V83H562.667V84Z" fill="#2CAEC6"/>
<path d="M699.552 22V11.8182H703.569C704.341 11.8182 704.999 11.9657 705.542 12.2607C706.086 12.5523 706.5 12.9583 706.785 13.4787C707.074 13.9957 707.218 14.5923 707.218 15.2685C707.218 15.9446 707.072 16.5412 706.78 17.0582C706.489 17.5753 706.066 17.978 705.513 18.2663C704.962 18.5547 704.296 18.6989 703.514 18.6989H700.954V16.9737H703.166C703.58 16.9737 703.922 16.9025 704.19 16.7599C704.462 16.6141 704.664 16.4136 704.797 16.1584C704.932 15.8999 705 15.6032 705 15.2685C705 14.9304 704.932 14.6354 704.797 14.3835C704.664 14.1283 704.462 13.9311 704.19 13.7919C703.918 13.6494 703.574 13.5781 703.156 13.5781H701.704V22H699.552ZM712.225 22H708.616V11.8182H712.255C713.279 11.8182 714.161 12.022 714.9 12.4297C715.639 12.834 716.208 13.4157 716.605 14.1747C717.006 14.9337 717.207 15.8419 717.207 16.8991C717.207 17.9598 717.006 18.8712 716.605 19.6335C716.208 20.3958 715.636 20.9808 714.89 21.3885C714.148 21.7962 713.259 22 712.225 22ZM710.769 20.1555H712.136C712.772 20.1555 713.308 20.0429 713.742 19.8175C714.179 19.5888 714.507 19.2358 714.726 18.7585C714.948 18.2779 715.059 17.6581 715.059 16.8991C715.059 16.1468 714.948 15.532 714.726 15.0547C714.507 14.5774 714.181 14.2261 713.747 14.0007C713.313 13.7753 712.777 13.6626 712.141 13.6626H710.769V20.1555ZM718.802 22V11.8182H725.543V13.593H720.954V16.0192H725.096V17.794H720.954V22H718.802ZM733.642 22.1491C732.87 22.1491 732.202 21.9851 731.638 21.657C731.078 21.3255 730.646 20.8648 730.341 20.2749C730.036 19.6816 729.883 18.9938 729.883 18.2116C729.883 17.4228 730.036 16.7334 730.341 16.1435C730.646 15.5502 731.078 15.0895 731.638 14.7614C732.202 14.4299 732.87 14.2642 733.642 14.2642C734.414 14.2642 735.08 14.4299 735.64 14.7614C736.204 15.0895 736.638 15.5502 736.943 16.1435C737.248 16.7334 737.4 17.4228 737.4 18.2116C737.4 18.9938 737.248 19.6816 736.943 20.2749C736.638 20.8648 736.204 21.3255 735.64 21.657C735.08 21.9851 734.414 22.1491 733.642 22.1491ZM733.652 20.5085C734.003 20.5085 734.296 20.4091 734.532 20.2102C734.767 20.008 734.944 19.733 735.064 19.3849C735.186 19.0369 735.248 18.6409 735.248 18.1967C735.248 17.7526 735.186 17.3565 735.064 17.0085C734.944 16.6605 734.767 16.3854 734.532 16.1832C734.296 15.9811 734.003 15.88 733.652 15.88C733.297 15.88 732.999 15.9811 732.757 16.1832C732.518 16.3854 732.338 16.6605 732.215 17.0085C732.096 17.3565 732.036 17.7526 732.036 18.1967C732.036 18.6409 732.096 19.0369 732.215 19.3849C732.338 19.733 732.518 20.008 732.757 20.2102C732.999 20.4091 733.297 20.5085 733.652 20.5085ZM743.674 18.7486V14.3636H745.792V22H743.759V20.6129H743.679C743.507 21.0604 743.22 21.42 742.819 21.6918C742.422 21.9635 741.936 22.0994 741.363 22.0994C740.852 22.0994 740.403 21.9834 740.015 21.7514C739.628 21.5194 739.324 21.1896 739.106 20.7621C738.89 20.3345 738.781 19.8224 738.777 19.2259V14.3636H740.895V18.848C740.899 19.2988 741.02 19.6551 741.258 19.9169C741.497 20.1787 741.817 20.3097 742.218 20.3097C742.473 20.3097 742.712 20.2517 742.934 20.1357C743.156 20.0163 743.335 19.8407 743.471 19.6087C743.61 19.3767 743.678 19.09 743.674 18.7486ZM751.548 14.3636V15.9545H746.949V14.3636H751.548ZM747.994 12.5341H750.111V19.6534C750.111 19.849 750.141 20.0014 750.201 20.1108C750.261 20.2169 750.343 20.2914 750.449 20.3345C750.559 20.3776 750.685 20.3991 750.827 20.3991C750.927 20.3991 751.026 20.3909 751.126 20.3743C751.225 20.3544 751.301 20.3395 751.354 20.3295L751.687 21.9055C751.581 21.9387 751.432 21.9768 751.24 22.0199C751.048 22.0663 750.814 22.0945 750.539 22.1044C750.029 22.1243 749.581 22.0563 749.197 21.9006C748.815 21.7448 748.519 21.5028 748.307 21.1747C748.095 20.8466 747.99 20.4323 747.994 19.9318V12.5341ZM752.928 24.8636V14.3636H755.016V15.6463H755.11C755.203 15.4408 755.337 15.232 755.513 15.0199C755.692 14.8045 755.924 14.6255 756.209 14.483C756.497 14.3371 756.855 14.2642 757.283 14.2642C757.84 14.2642 758.353 14.41 758.824 14.7017C759.295 14.9901 759.671 15.4259 759.953 16.0092C760.234 16.5893 760.375 17.3168 760.375 18.1918C760.375 19.0436 760.238 19.7628 759.963 20.3494C759.691 20.9328 759.32 21.3752 758.849 21.6768C758.382 21.9751 757.858 22.1243 757.278 22.1243C756.867 22.1243 756.517 22.0563 756.229 21.9205C755.944 21.7846 755.71 21.6139 755.528 21.4084C755.346 21.1996 755.206 20.9891 755.11 20.777H755.046V24.8636H752.928ZM755.001 18.1818C755.001 18.6359 755.064 19.032 755.19 19.37C755.316 19.7081 755.498 19.9716 755.737 20.1605C755.975 20.3461 756.265 20.4389 756.607 20.4389C756.951 20.4389 757.243 20.3445 757.482 20.1555C757.72 19.9633 757.901 19.6982 758.024 19.3601C758.15 19.0187 758.213 18.6259 758.213 18.1818C758.213 17.741 758.151 17.3532 758.029 17.0185C757.906 16.6837 757.725 16.4219 757.487 16.233C757.248 16.044 756.955 15.9496 756.607 15.9496C756.262 15.9496 755.97 16.0407 755.732 16.223C755.496 16.4053 755.316 16.6638 755.19 16.9986C755.064 17.3333 755.001 17.7277 755.001 18.1818ZM766.684 18.7486V14.3636H768.802V22H766.769V20.6129H766.689C766.517 21.0604 766.23 21.42 765.829 21.6918C765.431 21.9635 764.946 22.0994 764.372 22.0994C763.862 22.0994 763.413 21.9834 763.025 21.7514C762.637 21.5194 762.334 21.1896 762.115 20.7621C761.9 20.3345 761.791 19.8224 761.787 19.2259V14.3636H763.905V18.848C763.908 19.2988 764.029 19.6551 764.268 19.9169C764.507 20.1787 764.826 20.3097 765.228 20.3097C765.483 20.3097 765.721 20.2517 765.943 20.1357C766.166 20.0163 766.344 19.8407 766.48 19.6087C766.62 19.3767 766.688 19.09 766.684 18.7486ZM774.558 14.3636V15.9545H769.959V14.3636H774.558ZM771.003 12.5341H773.121V19.6534C773.121 19.849 773.151 20.0014 773.211 20.1108C773.27 20.2169 773.353 20.2914 773.459 20.3345C773.569 20.3776 773.695 20.3991 773.837 20.3991C773.937 20.3991 774.036 20.3909 774.135 20.3743C774.235 20.3544 774.311 20.3395 774.364 20.3295L774.697 21.9055C774.591 21.9387 774.442 21.9768 774.25 22.0199C774.057 22.0663 773.824 22.0945 773.549 22.1044C773.038 22.1243 772.591 22.0563 772.206 21.9006C771.825 21.7448 771.529 21.5028 771.316 21.1747C771.104 20.8466 771 20.4323 771.003 19.9318V12.5341Z" fill="#2CAEC6"/>
<g filter="url(#filter2_d_82_267)">
<rect x="698.667" y="35" width="193.333" height="103" rx="4" fill="white"/>
<path d="M715.678 92V80.3636H718.138V85.1648H723.133V80.3636H725.587V92H723.133V87.1932H718.138V92H715.678ZM731.547 92.1705C730.65 92.1705 729.877 91.9886 729.229 91.625C728.585 91.2576 728.089 90.7386 727.74 90.0682C727.392 89.3939 727.218 88.5966 727.218 87.6761C727.218 86.7784 727.392 85.9905 727.74 85.3125C728.089 84.6345 728.58 84.1061 729.212 83.7273C729.848 83.3485 730.595 83.1591 731.451 83.1591C732.026 83.1591 732.562 83.2519 733.059 83.4375C733.559 83.6193 733.994 83.8939 734.365 84.2614C734.74 84.6288 735.032 85.0909 735.24 85.6477C735.449 86.2008 735.553 86.8485 735.553 87.5909V88.2557H728.184V86.7557H733.275C733.275 86.4072 733.199 86.0985 733.047 85.8295C732.896 85.5606 732.686 85.3504 732.417 85.1989C732.151 85.0436 731.843 84.9659 731.49 84.9659C731.123 84.9659 730.797 85.0511 730.513 85.2216C730.233 85.3883 730.013 85.6136 729.854 85.8977C729.695 86.178 729.614 86.4905 729.61 86.8352V88.2614C729.61 88.6932 729.689 89.0663 729.848 89.3807C730.011 89.6951 730.24 89.9375 730.536 90.108C730.831 90.2784 731.182 90.3636 731.587 90.3636C731.856 90.3636 732.102 90.3258 732.326 90.25C732.549 90.1742 732.74 90.0606 732.9 89.9091C733.059 89.7576 733.18 89.572 733.263 89.3523L735.502 89.5C735.388 90.0379 735.155 90.5076 734.803 90.9091C734.455 91.3068 734.004 91.6174 733.451 91.8409C732.901 92.0606 732.267 92.1705 731.547 92.1705ZM739.553 80.3636V92H737.133V80.3636H739.553ZM743.912 80.3636V92H741.492V80.3636H743.912ZM749.794 92.1705C748.912 92.1705 748.149 91.983 747.505 91.608C746.865 91.2292 746.37 90.7027 746.022 90.0284C745.673 89.3504 745.499 88.5644 745.499 87.6705C745.499 86.7689 745.673 85.9811 746.022 85.3068C746.37 84.6288 746.865 84.1023 747.505 83.7273C748.149 83.3485 748.912 83.1591 749.794 83.1591C750.677 83.1591 751.438 83.3485 752.079 83.7273C752.722 84.1023 753.219 84.6288 753.567 85.3068C753.916 85.9811 754.09 86.7689 754.09 87.6705C754.09 88.5644 753.916 89.3504 753.567 90.0284C753.219 90.7027 752.722 91.2292 752.079 91.608C751.438 91.983 750.677 92.1705 749.794 92.1705ZM749.806 90.2955C750.207 90.2955 750.543 90.1818 750.812 89.9545C751.08 89.7235 751.283 89.4091 751.419 89.0114C751.56 88.6136 751.63 88.161 751.63 87.6534C751.63 87.1458 751.56 86.6932 751.419 86.2955C751.283 85.8977 751.08 85.5833 750.812 85.3523C750.543 85.1212 750.207 85.0057 749.806 85.0057C749.401 85.0057 749.06 85.1212 748.783 85.3523C748.51 85.5833 748.304 85.8977 748.164 86.2955C748.027 86.6932 747.959 87.1458 747.959 87.6534C747.959 88.161 748.027 88.6136 748.164 89.0114C748.304 89.4091 748.51 89.7235 748.783 89.9545C749.06 90.1818 749.401 90.2955 749.806 90.2955ZM761.089 92L758.714 83.2727H761.162L762.515 89.1364H762.594L764.003 83.2727H766.407L767.839 89.1023H767.912L769.242 83.2727H771.685L769.316 92H766.753L765.253 86.5114H765.145L763.645 92H761.089ZM776.701 92.1705C775.818 92.1705 775.055 91.983 774.411 91.608C773.771 91.2292 773.276 90.7027 772.928 90.0284C772.58 89.3504 772.405 88.5644 772.405 87.6705C772.405 86.7689 772.58 85.9811 772.928 85.3068C773.276 84.6288 773.771 84.1023 774.411 83.7273C775.055 83.3485 775.818 83.1591 776.701 83.1591C777.583 83.1591 778.345 83.3485 778.985 83.7273C779.629 84.1023 780.125 84.6288 780.473 85.3068C780.822 85.9811 780.996 86.7689 780.996 87.6705C780.996 88.5644 780.822 89.3504 780.473 90.0284C780.125 90.7027 779.629 91.2292 778.985 91.608C778.345 91.983 777.583 92.1705 776.701 92.1705ZM776.712 90.2955C777.114 90.2955 777.449 90.1818 777.718 89.9545C777.987 89.7235 778.189 89.4091 778.326 89.0114C778.466 88.6136 778.536 88.161 778.536 87.6534C778.536 87.1458 778.466 86.6932 778.326 86.2955C778.189 85.8977 777.987 85.5833 777.718 85.3523C777.449 85.1212 777.114 85.0057 776.712 85.0057C776.307 85.0057 775.966 85.1212 775.689 85.3523C775.417 85.5833 775.21 85.8977 775.07 86.2955C774.934 86.6932 774.865 87.1458 774.865 87.6534C774.865 88.161 774.934 88.6136 775.07 89.0114C775.21 89.4091 775.417 89.7235 775.689 89.9545C775.966 90.1818 776.307 90.2955 776.712 90.2955ZM782.57 92V83.2727H784.917V84.7955H785.008C785.167 84.2538 785.434 83.8447 785.809 83.5682C786.184 83.2879 786.615 83.1477 787.104 83.1477C787.225 83.1477 787.356 83.1553 787.496 83.1705C787.636 83.1856 787.759 83.2064 787.865 83.233V85.3807C787.752 85.3466 787.595 85.3163 787.394 85.2898C787.193 85.2633 787.009 85.25 786.843 85.25C786.487 85.25 786.169 85.3277 785.888 85.483C785.612 85.6345 785.392 85.8466 785.229 86.1193C785.07 86.392 784.99 86.7064 784.99 87.0625V92H782.57ZM791.537 80.3636V92H789.117V80.3636H791.537ZM796.692 92.142C796.029 92.142 795.429 91.9716 794.891 91.6307C794.357 91.286 793.933 90.7803 793.618 90.1136C793.308 89.4432 793.152 88.6212 793.152 87.6477C793.152 86.6477 793.313 85.8163 793.635 85.1534C793.957 84.4867 794.385 83.9886 794.919 83.6591C795.457 83.3258 796.046 83.1591 796.687 83.1591C797.175 83.1591 797.582 83.2424 797.908 83.4091C798.238 83.572 798.503 83.7765 798.704 84.0227C798.908 84.2652 799.063 84.5038 799.169 84.7386H799.243V80.3636H801.658V92H799.272V90.6023H799.169C799.056 90.8447 798.895 91.0852 798.687 91.3239C798.482 91.5587 798.215 91.7538 797.885 91.9091C797.56 92.0644 797.162 92.142 796.692 92.142ZM797.459 90.2159C797.849 90.2159 798.179 90.1098 798.448 89.8977C798.721 89.6818 798.929 89.3807 799.073 88.9943C799.221 88.608 799.294 88.1553 799.294 87.6364C799.294 87.1174 799.222 86.6667 799.079 86.2841C798.935 85.9015 798.726 85.6061 798.454 85.3977C798.181 85.1894 797.849 85.0852 797.459 85.0852C797.062 85.0852 796.726 85.1932 796.454 85.4091C796.181 85.625 795.974 85.9242 795.834 86.3068C795.694 86.6894 795.624 87.1326 795.624 87.6364C795.624 88.1439 795.694 88.5928 795.834 88.983C795.978 89.3693 796.185 89.6723 796.454 89.892C796.726 90.108 797.062 90.2159 797.459 90.2159Z" fill="black"/>
</g>
<defs>
<filter id="filter0_d_82_267" x="0" y="31" width="209.333" height="119" filterUnits="userSpaceOnUse" color-interpolation-filters="sRGB">
<feFlood flood-opacity="0" result="BackgroundImageFix"/>
<feColorMatrix in="SourceAlpha" type="matrix" values="0 0 0 0 0 0 0 0 0 0 0 0 0 0 0 0 0 0 127 0" result="hardAlpha"/>
<feOffset dy="4"/>
<feGaussianBlur stdDeviation="4"/>
<feComposite in2="hardAlpha" operator="out"/>
<feColorMatrix type="matrix" values="0 0 0 0 0 0 0 0 0 0 0 0 0 0 0 0 0 0 0.25 0"/>
<feBlend mode="normal" in2="BackgroundImageFix" result="effect1_dropShadow_82_267"/>
<feBlend mode="normal" in="SourceGraphic" in2="effect1_dropShadow_82_267" result="shape"/>
</filter>
<filter id="filter1_d_82_267" x="345.333" y="31" width="209.333" height="119" filterUnits="userSpaceOnUse" color-interpolation-filters="sRGB">
<feFlood flood-opacity="0" result="BackgroundImageFix"/>
<feColorMatrix in="SourceAlpha" type="matrix" values="0 0 0 0 0 0 0 0 0 0 0 0 0 0 0 0 0 0 127 0" result="hardAlpha"/>
<feOffset dy="4"/>
<feGaussianBlur stdDeviation="4"/>
<feComposite in2="hardAlpha" operator="out"/>
<feColorMatrix type="matrix" values="0 0 0 0 0 0 0 0 0 0 0 0 0 0 0 0 0 0 0.25 0"/>
<feBlend mode="normal" in2="BackgroundImageFix" result="effect1_dropShadow_82_267"/>
<feBlend mode="normal" in="SourceGraphic" in2="effect1_dropShadow_82_267" result="shape"/>
</filter>
<filter id="filter2_d_82_267" x="690.667" y="31" width="209.333" height="119" filterUnits="userSpaceOnUse" color-interpolation-filters="sRGB">
<feFlood flood-opacity="0" result="BackgroundImageFix"/>
<feColorMatrix in="SourceAlpha" type="matrix" values="0 0 0 0 0 0 0 0 0 0 0 0 0 0 0 0 0 0 127 0" result="hardAlpha"/>
<feOffset dy="4"/>
<feGaussianBlur stdDeviation="4"/>
<feComposite in2="hardAlpha" operator="out"/>
<feColorMatrix type="matrix" values="0 0 0 0 0 0 0 0 0 0 0 0 0 0 0 0 0 0 0.25 0"/>
<feBlend mode="normal" in2="BackgroundImageFix" result="effect1_dropShadow_82_267"/>
<feBlend mode="normal" in="SourceGraphic" in2="effect1_dropShadow_82_267" result="shape"/>
</filter>
</defs>
</svg>
